<svg width="202" height="31" viewBox="0 0 202 31" fill="none" xmlns="http://www.w3.org/2000/svg">
<path d="M17.7392 8.5728C16.664 7.984 15.5632 7.4976 14.4368 7.1136C13.336 6.7296 12.2992 6.5376 11.3264 6.5376C10.1232 6.5376 9.176 6.7808 8.4848 7.2672C7.7936 7.7536 7.448 8.4832 7.448 9.456C7.448 10.1216 7.704 10.7232 8.216 11.2608C8.7536 11.7728 9.432 12.2336 10.2512 12.6432C11.096 13.0528 11.9664 13.424 12.8624 13.7568C13.9632 14.1664 15.0256 14.6912 16.0496 15.3312C17.0736 15.9456 17.9184 16.8032 18.584 17.904C19.2496 18.9792 19.5824 20.4128 19.5824 22.2048C19.5824 23.6384 19.2112 24.9696 18.4688 26.1984C17.7264 27.4272 16.6384 28.4256 15.2048 29.1936C13.7712 29.936 12.0048 30.3072 9.9056 30.3072C8.2928 30.3072 6.6416 30.064 4.952 29.5776C3.288 29.0912 1.7136 28.3232 0.2288 27.2736L2.6864 22.9344C3.6592 23.6512 4.7728 24.24 6.0272 24.7008C7.2816 25.1616 8.408 25.392 9.4064 25.392C10.072 25.392 10.7376 25.3024 11.4032 25.1232C12.0944 24.9184 12.6576 24.5856 13.0928 24.1248C13.5536 23.664 13.784 23.024 13.784 22.2048C13.784 21.36 13.3744 20.6304 12.5552 20.016C11.7616 19.376 10.8016 18.8384 9.6752 18.4032C8.8048 18.0704 7.9088 17.6864 6.9872 17.2512C6.0656 16.816 5.1952 16.2912 4.376 15.6768C3.5824 15.0368 2.9296 14.256 2.4176 13.3344C1.9312 12.3872 1.688 11.2352 1.688 9.8784C1.688 8.24 2.0464 6.8192 2.7632 5.616C3.5056 4.4128 4.5424 3.4656 5.8736 2.7744C7.2048 2.0576 8.7408 1.6608 10.4816 1.584C12.76 1.584 14.6032 1.8528 16.0112 2.3904C17.4448 2.928 18.7248 3.568 19.8512 4.3104L17.7392 8.5728ZM29.0291 13.2192L29.4131 15.8688C30.0531 14.768 30.8723 13.9104 31.8707 13.296C32.8947 12.6816 34.0979 12.3744 35.4803 12.3744C36.8371 12.3744 37.9635 12.656 38.8595 13.2192C39.7811 13.7568 40.3827 14.576 40.6643 15.6768C41.3555 14.6784 42.1875 13.8848 43.1603 13.296C44.1587 12.6816 45.1955 12.3744 46.2707 12.3744C47.9347 12.3744 49.2531 12.848 50.2259 13.7952C51.2243 14.7168 51.7363 15.92 51.7619 17.4048V30H46.4243V19.632C46.3987 18.8896 46.2835 18.288 46.0787 17.8272C45.8739 17.3408 45.4003 17.072 44.6579 17.0208C43.7875 17.0208 43.0451 17.328 42.4307 17.9424C41.8419 18.5312 41.3939 19.2992 41.0867 20.2464C40.8051 21.168 40.6643 22.128 40.6643 23.1264V30H35.2883V19.632C35.2627 18.8896 35.1219 18.288 34.8659 17.8272C34.6355 17.3408 34.1491 17.072 33.4067 17.0208C32.5619 17.0208 31.8451 17.328 31.2563 17.9424C30.6931 18.5312 30.2579 19.2864 29.9507 20.208C29.6691 21.1296 29.5283 22.0768 29.5283 23.0496V30H24.1523V13.2192H29.0291ZM64.3679 30.4608C62.8063 30.4608 61.3855 30.1536 60.1055 29.5392C58.8511 28.8992 57.8527 27.9264 57.1103 26.6208C56.3679 25.3152 55.9967 23.6512 55.9967 21.6288C55.9967 19.7344 56.3807 18.096 57.1487 16.7136C57.9167 15.3312 58.9279 14.2688 60.1823 13.5264C61.4367 12.7584 62.7679 12.3744 64.1759 12.3744C65.8399 12.3744 67.0943 12.6432 67.9391 13.1808C68.8095 13.7184 69.5007 14.3072 70.0127 14.9472L70.3583 13.2192H75.3503V30H69.9743V27.9264C69.7183 28.1824 69.3343 28.5152 68.8223 28.9248C68.3359 29.3344 67.7215 29.6928 66.9791 30C66.2367 30.3072 65.3663 30.4608 64.3679 30.4608ZM65.9039 26.0832C67.7727 26.0832 69.1295 25.2384 69.9743 23.5488V19.44C69.6671 18.6208 69.1295 17.968 68.3615 17.4816C67.6191 16.9952 66.7359 16.752 65.7119 16.752C64.5599 16.752 63.5615 17.1872 62.7167 18.0576C61.8719 18.9024 61.4495 20.0032 61.4495 21.36C61.4495 22.256 61.6543 23.0624 62.0639 23.7792C62.4735 24.496 63.0111 25.0592 63.6767 25.4688C64.3679 25.8784 65.1103 26.0832 65.9039 26.0832ZM85.7282 13.2192L86.1506 17.0592C86.637 16.0864 87.3026 15.2544 88.1474 14.5632C88.9922 13.8464 89.8242 13.3088 90.6434 12.9504C91.4626 12.5664 92.0898 12.3744 92.525 12.3744L92.2562 17.7504C91.0018 17.5968 89.9266 17.8016 89.0306 18.3648C88.1346 18.928 87.4434 19.6704 86.957 20.592C86.4706 21.5136 86.2274 22.4608 86.2274 23.4336V30H80.8898V13.2192H85.7282ZM98.2142 5.8464H103.59V13.1424H107.661V17.328H103.59V30H98.2142V17.328H95.603V13.1424H98.2142V5.8464Z" fill="#25282B"/>
<path d="M112.635 30V0.585601H112.674L126.997 20.8992L141.666 0.585601H141.743V30H136.175V16.5216L126.959 29.616H126.882L118.011 17.3664V30H112.635ZM156.421 30.4608C154.373 30.4608 152.632 30.0768 151.198 29.3088C149.79 28.5408 148.715 27.4784 147.973 26.1216C147.23 24.7648 146.859 23.2032 146.859 21.4368C146.859 19.7472 147.294 18.224 148.165 16.8672C149.035 15.5104 150.2 14.4352 151.659 13.6416C153.118 12.8224 154.744 12.4128 156.536 12.4128C158.942 12.4128 160.914 13.1168 162.45 14.5248C164.011 15.9072 165.022 17.9168 165.483 20.5536L153.195 24.4704C154.014 25.4176 155.128 25.8912 156.536 25.8912C157.125 25.8912 157.688 25.7888 158.226 25.584C158.789 25.3792 159.339 25.1104 159.877 24.7776L162.258 28.7712C161.362 29.2832 160.389 29.6928 159.339 30C158.315 30.3072 157.342 30.4608 156.421 30.4608ZM152.158 21.1296C152.158 21.2576 152.158 21.3728 152.158 21.4752L159.531 18.9792C159.301 18.3392 158.93 17.7888 158.418 17.328C157.906 16.8416 157.138 16.5984 156.114 16.5984C154.91 16.5984 153.95 17.008 153.234 17.8272C152.517 18.6464 152.158 19.7472 152.158 21.1296ZM177.646 30.4608C175.598 30.4608 173.857 30.0768 172.423 29.3088C171.015 28.5408 169.94 27.4784 169.198 26.1216C168.455 24.7648 168.084 23.2032 168.084 21.4368C168.084 19.7472 168.519 18.224 169.39 16.8672C170.26 15.5104 171.425 14.4352 172.884 13.6416C174.343 12.8224 175.969 12.4128 177.761 12.4128C180.167 12.4128 182.139 13.1168 183.675 14.5248C185.236 15.9072 186.247 17.9168 186.708 20.5536L174.42 24.4704C175.239 25.4176 176.353 25.8912 177.761 25.8912C178.35 25.8912 178.913 25.7888 179.451 25.584C180.014 25.3792 180.564 25.1104 181.102 24.7776L183.483 28.7712C182.587 29.2832 181.614 29.6928 180.564 30C179.54 30.3072 178.567 30.4608 177.646 30.4608ZM173.383 21.1296C173.383 21.2576 173.383 21.3728 173.383 21.4752L180.756 18.9792C180.526 18.3392 180.155 17.7888 179.643 17.328C179.131 16.8416 178.363 16.5984 177.339 16.5984C176.135 16.5984 175.175 17.008 174.459 17.8272C173.742 18.6464 173.383 19.7472 173.383 21.1296ZM192.189 5.8464H197.565V13.1424H201.636V17.328H197.565V30H192.189V17.328H189.578V13.1424H192.189V5.8464Z" fill="#532EB3"/>
</svg>
