<svg width="95" height="120" viewBox="0 0 95 120" fill="none" xmlns="http://www.w3.org/2000/svg">
<path fill-rule="evenodd" clip-rule="evenodd" d="M42.0489 1.08033C34.0618 2.78519 27.3023 8.21373 23.8515 15.6944C22.0824 19.5293 21.6625 21.5632 21.6559 26.329C21.6512 29.7874 21.7796 31.024 22.3504 33.0199C24.5777 40.8082 30.3343 47.3106 37.5497 50.188C51.9716 55.9393 67.8079 48.0742 72.1124 33.0224C73.1156 29.5143 73.1156 23.1436 72.1124 19.6355C71.3249 16.882 70.0138 14.1225 68.2749 11.5587C66.6604 9.17788 62.8158 5.60128 60.2253 4.07052C55.0049 0.985108 47.9394 -0.177343 42.0489 1.08033ZM42.8342 59.6535C36.2763 60.0476 26.8622 62.0768 25.9689 63.2889C25.4258 64.0255 24.3817 68.729 23.9558 72.3569C23.5763 75.5878 23.7337 82.2853 24.229 83.9958C24.4875 84.889 24.6082 84.948 26.522 85.1206C29.9888 85.4326 32.4907 87.1227 34.021 90.1868C35.7319 93.6125 35.2203 97.8066 32.7479 100.616C29.9781 103.765 25.4101 104.714 21.7209 102.909C19.633 101.887 18.2221 100.384 17.1494 98.0398C16.4785 96.5738 16.3921 96.0138 16.5158 93.94C16.6785 91.2153 17.3966 89.5111 19.1006 87.8065L20.1771 86.7296L19.7376 84.2626C19.1248 80.8224 19.1854 73.497 19.8642 68.9864L20.4205 65.2904L19.77 65.4874C18.5249 65.8642 13.1439 69.2306 10.8999 71.037C5.63329 75.2754 2.21361 80.3897 0.735742 86.2374C0.134542 88.6158 0.10062 89.5598 0.183858 101.65L0.27275 114.529L1.22324 116.067C1.81219 117.02 2.7589 117.967 3.71159 118.556L5.24914 119.507H47.2317H89.2142L90.7518 118.556C91.7045 117.967 92.6512 117.02 93.2402 116.067L94.1906 114.529L94.2814 101.777C94.359 90.8722 94.2971 88.6824 93.8555 86.667C92.1483 78.8781 86.3389 71.9499 77.1613 66.7574C75.7419 65.9544 74.4958 65.2973 74.3919 65.2973C74.2879 65.2973 74.2954 66.747 74.4085 68.5185C74.548 70.707 74.4541 73.0841 74.1155 75.9335C73.8409 78.2401 73.617 80.3614 73.6173 80.6474C73.6176 80.9333 74.2427 81.5625 75.0063 82.0449C77.7352 83.7699 79.737 86.6937 80.6866 90.3417C81.289 92.6553 81.2941 98.142 80.6966 101.266C80.2619 103.539 80.2701 103.716 80.8524 104.672C82.5762 107.5 80.1658 111.494 76.7345 111.494C74.5238 111.494 72.0461 109.028 72.0461 106.827C72.0461 105.153 74.1045 102.38 75.3471 102.38C75.8515 102.38 75.9995 101.95 76.4295 99.2375C77.8891 90.0233 74.128 84.153 66.7644 84.153C64.1542 84.153 62.715 84.7293 60.7263 86.5712C58.7676 88.3857 57.0975 91.226 55.875 94.8221C55.1557 96.9377 55.1522 97.0018 55.7276 97.5229C57.1377 98.7994 57.3016 101.846 56.0546 103.598C55.1968 104.803 52.9814 105.669 51.479 105.388C49.9412 105.099 48.2576 103.544 47.8521 102.037C47.3564 100.195 47.9067 98.5725 49.4857 97.2202C50.5659 96.2954 50.9234 95.6734 51.6198 93.5094C53.5468 87.5193 56.8223 82.9883 60.606 81.0773C62.8657 79.9359 65.884 79.3243 67.822 79.615C68.5903 79.7304 69.2195 79.7024 69.2198 79.5534C69.2201 79.4042 69.4287 77.3055 69.6834 74.8901C69.9378 72.4747 70.0742 69.9292 69.9859 69.2334C69.5157 65.5248 69.0935 63.385 68.7825 63.1324C68.236 62.6883 64.6247 61.6484 61.1962 60.9479C55.5163 59.7874 48.6537 59.3037 42.8342 59.6535Z" fill="#16CBAC"/>
</svg>
