<svg width="82" height="120" viewBox="0 0 82 120" fill="none" xmlns="http://www.w3.org/2000/svg">
<path fill-rule="evenodd" clip-rule="evenodd" d="M40.2214 8.38559C39.7088 12.6788 38.9198 19.3342 38.4682 23.177C38.0165 27.0198 36.7015 30.9474 35.547 31.9062C33.8382 33.3259 33.0166 32.6168 31.1295 28.0976C29.8532 25.0442 28.4208 19.2554 27.9454 15.2357C26.9424 6.76076 26.1742 5.97584 20.8683 7.99462C17.0615 9.44254 16.9813 9.73094 17.9723 18.4913C18.9203 26.8816 18.7227 27.781 15.0809 31.5836L11.1716 35.6658L16.7376 37.6593C28.9855 42.0462 39.9421 52.0062 45.8068 64.0847C49.1722 71.0151 50.4545 71.4819 57.6401 68.3972C64.0381 65.6515 71.09 57.7548 74.0884 49.98C77.5593 40.9803 77.176 38.9273 71.3188 35.1306C65.6785 31.4751 64.735 27.0065 67.5373 17.2263C68.824 12.7413 68.6175 12.2135 65.053 10.8578C59.3191 8.67696 57.9506 9.84838 55.9685 18.6415C53.8259 28.1467 52.2093 31.0633 49.878 29.6228C48.6373 28.8558 48.4382 24.5878 49.1722 14.5668L50.1989 0.581055H45.6775C41.3314 0.581055 41.1189 0.884317 40.2214 8.38559ZM4.2639 43.0585C-1.63492 52.0672 0.632489 76.4887 8.63676 90.1474C16.6663 103.849 36.8932 119.507 46.5645 119.507C52.3267 119.507 59.6504 114.028 64.5597 106.045L69.0974 98.6669L63.1778 96.2973C57.5063 94.0258 48.306 85.3368 48.306 82.2492C48.306 81.4375 45.9256 75.9431 43.0163 70.0369C35.333 54.4457 26.9276 46.5029 12.8462 41.5333C6.83294 39.4105 6.63086 39.4461 4.2639 43.0585ZM76.6545 56.8406C73.0691 63.8721 65.1139 71.0389 58.062 73.5899C52.1825 75.7172 51.6135 77.7062 55.1646 83.7224C57.851 88.2698 61.7232 91.0557 67.7706 92.792C71.7214 93.9248 71.9518 93.6527 75.7986 83.3195C79.4434 73.5289 82.7123 51.1247 80.4969 51.1247C79.9857 51.1247 78.2577 53.6965 76.6545 56.8406Z" fill="#16CBAC"/>
</svg>
