<svg width="106" height="118" viewBox="0 0 106 118" fill="none" xmlns="http://www.w3.org/2000/svg">
<path fill-rule="evenodd" clip-rule="evenodd" d="M20.958 1.52807C18.3094 2.29302 13.2348 5.71539 9.67976 9.13334C-2.48573 20.8316 -3.00453 35.8771 7.99511 58.0915C12.4197 67.0307 15.7507 76.7068 18.2047 87.7595C23.7333 112.658 28.9096 120.548 36.9099 116.266C40.7626 114.204 45.0752 104.712 46.4636 95.2335C48.6538 80.2971 57.4264 80.2971 59.6166 95.2335C61.005 104.712 65.3176 114.204 69.1704 116.266C77.1706 120.548 82.3469 112.658 87.8755 87.7595C90.3295 76.7068 93.6605 67.0307 98.0851 58.0915C109.077 35.8918 108.564 20.8301 96.4226 9.15397C87.563 0.634888 81.1487 -0.909746 64.1444 1.38215C54.1013 2.73518 48.6804 2.77056 42.0832 1.52365C31.9311 -0.39241 27.6126 -0.392407 20.958 1.52807ZM36.8273 14.4231C36.8273 16.4718 35.4021 17.4122 31.3002 18.0725C24.0089 19.2442 19.2954 22.7226 16.7544 28.8068C14.5996 33.9654 10.822 35.3818 9.36287 31.5792C8.03489 28.117 15.5444 16.7725 20.9196 14.1239C23.5889 12.8077 28.2611 11.7156 31.3002 11.6979C35.7308 11.6714 36.8273 12.2108 36.8273 14.4231Z" fill="#16CBAC"/>
</svg>
