<svg width="200" height="200" viewBox="0 0 200 200" fill="none" xmlns="http://www.w3.org/2000/svg">
<mask id="path-1-inside-1" fill="white">
<path fill-rule="evenodd" clip-rule="evenodd" d="M100 0C155.228 0 200 44.7715 200 100C200 155.228 155.228 200 100 200H0V100C0 44.7715 44.7715 0 100 0Z"/>
</mask>
<path d="M0 200V240H-40V200H0ZM160 100C160 66.8629 133.137 40 100 40V-40C177.32 -40 240 22.6801 240 100H160ZM100 160C133.137 160 160 133.137 160 100H240C240 177.32 177.32 240 100 240V160ZM0 160H100V240H0V160ZM40 100V200H-40V100H40ZM100 40C66.8629 40 40 66.8629 40 100H-40C-40 22.6801 22.6801 -40 100 -40V40Z" fill="#16CBAC" mask="url(#path-1-inside-1)"/>
</svg>
