<svg width="20" height="20" viewBox="0 0 20 20" fill="none" xmlns="http://www.w3.org/2000/svg">
<path d="M18.2451 2.68942C15.9052 0.349502 12.1183 0.349736 9.77869 2.68942L1.364 11.1041C-0.454668 12.9227 -0.454668 15.8819 1.364 17.7006C3.18314 19.5198 6.14236 19.5187 7.96049 17.7006L16.3752 9.28591C17.6783 7.98278 17.6783 5.86247 16.3752 4.55935C15.0721 3.25618 12.9517 3.25618 11.6486 4.55935L4.47178 11.7362C4.19932 12.0086 4.19932 12.4504 4.47178 12.7229C4.74424 12.9953 5.18604 12.9953 5.45846 12.7229L12.6353 5.54603C13.3944 4.78696 14.6294 4.78696 15.3885 5.54603C16.1475 6.30509 16.1475 7.54017 15.3885 8.29919L6.97381 16.7139C5.69607 17.9916 3.62826 17.9915 2.35068 16.7139C1.73326 16.0965 1.39322 15.2756 1.39322 14.4024C1.39322 13.5292 1.7333 12.7083 2.35068 12.0908L10.7654 3.6761C12.5599 1.88157 15.4641 1.88181 17.2584 3.6761C19.0485 5.46626 19.0485 8.37903 17.2584 10.1692L13.5185 13.909C13.2461 14.1815 13.2461 14.6233 13.5185 14.8957C13.791 15.1682 14.2328 15.1682 14.5052 14.8957L18.2451 11.1558C20.5851 8.81599 20.5848 5.02903 18.2451 2.68942Z" fill="#25282B"/>
</svg>
