<svg width="79" height="78" viewBox="0 0 79 78" fill="none" xmlns="http://www.w3.org/2000/svg">
<path fill-rule="evenodd" clip-rule="evenodd" d="M15.1327 0.343092C11.4579 1.3657 8.32794 4.16999 6.81073 7.79993C6.33148 8.94637 6.25129 9.56968 6.24373 12.2009L6.2352 15.2665L7.26731 17.3495C11.0584 24.9999 20.8702 26.6777 26.8496 20.6984C33.4498 14.0981 30.3028 2.77248 21.1949 0.348456C19.6141 -0.0722861 16.6353 -0.0749683 15.1327 0.343092ZM56.7416 0.360156C50.7844 1.99778 46.8602 7.95448 47.7902 13.948C48.8077 20.5068 54.9799 25.1288 61.4592 24.1845C64.0716 23.8037 66.1344 22.8092 68.0726 20.9963C70.8937 18.3572 72.0906 15.3199 71.8695 11.3599C71.6191 6.87191 69.239 3.2995 65.105 1.20652C62.7324 0.00547481 59.2965 -0.342381 56.7416 0.360156ZM15.9174 29.0381C12.2558 29.4438 8.59925 31.2008 5.71402 33.9415C3.55693 35.9906 1.93125 38.5048 0.899623 41.3874L0.14102 43.5067L0.070327 60.0309L-0.00012207 76.5554L0.722161 77.2775L1.4442 77.9998H10.7871L20.1299 78L20.0451 73.7431C19.9369 68.3139 20.2752 66.4064 21.9499 63.0081C22.6105 61.6674 23.7011 59.8961 24.3734 59.072C25.4043 57.8088 28.3227 55.365 29.8635 54.475C30.2326 54.2619 30.0196 53.958 28.232 52.1463C24.8044 48.6719 23.529 45.4054 23.7243 40.6C23.8571 37.3301 24.4256 35.4005 25.9574 33.0196C26.5534 32.0933 26.99 31.2523 26.9274 31.1509C26.7272 30.8272 24.5733 29.9613 22.8114 29.4964C20.7111 28.9423 18.2566 28.779 15.9174 29.0381ZM57.8904 29.0128C54.8338 29.3258 50.7242 30.8435 51.1278 31.5099C51.2263 31.6728 51.7278 32.4594 52.2421 33.2582C53.8788 35.8007 54.7183 39.6186 54.3541 42.8646C53.9309 46.6386 52.6516 49.243 49.7888 52.1592C48.0203 53.9607 47.8111 54.2617 48.1802 54.475C49.7211 55.365 52.6394 57.8088 53.6703 59.072C54.3426 59.8961 55.4333 61.6674 56.0939 63.0081C57.7685 66.4064 58.1069 68.3139 57.9987 73.7431L57.9138 78L67.2567 77.9998H76.5996L77.3216 77.2775L78.0439 76.5554L77.9734 60.0309L77.9027 43.5067L77.1441 41.3874C74.1889 33.13 66.4225 28.1384 57.8904 29.0128ZM36.8543 30.4851C30.3769 31.7571 26.4211 38.929 28.7868 45.1114C29.8155 47.7997 32.3739 50.3963 35.0378 51.4562C37.0869 52.2716 40.9569 52.2716 43.006 51.4562C45.6699 50.3963 48.2282 47.7997 49.2569 45.1114C52.2918 37.1805 45.2211 28.8419 36.8543 30.4851ZM35.3654 57.1635C30.453 58.512 26.5298 62.3436 25.0128 67.274C24.5558 68.7593 24.2201 74.4271 24.5007 75.9221C24.5948 76.4243 24.9338 77.0973 25.2542 77.4176L25.8363 77.9998H39.0219H52.2075L52.7896 77.4176C53.585 76.6222 53.7369 75.5477 53.5818 71.8117C53.4292 68.1325 52.9551 66.3106 51.5213 63.8939C49.8086 61.0067 46.9116 58.6042 43.8297 57.515C41.8276 56.8076 37.3406 56.6211 35.3654 57.1635Z" fill="white"/>
</svg>
