<svg width="90" height="80" viewBox="0 0 90 80" fill="none" xmlns="http://www.w3.org/2000/svg">
<path fill-rule="evenodd" clip-rule="evenodd" d="M60.6691 2.30704C60.661 11.3951 55.9245 19.1753 48.0188 23.0872C45.0531 24.5545 42.9981 25.1289 39.885 25.3602L37.5909 25.5305V36.9569V48.3833L38.8169 50.6879C39.4915 51.9552 40.2651 53.7155 40.5363 54.6001L41.0293 56.208H43.4708H45.9121L47.5705 57.696C49.343 59.2866 51.6029 60.6146 54.199 61.5914C55.7199 62.1638 56.3597 62.201 66.2582 62.2958C76.3304 62.3923 76.7756 62.3741 78.4705 61.8C81.647 60.7239 83.7731 58.8215 85.1747 55.8017C85.8668 54.3106 86.0756 53.1358 86.9427 45.8612C87.4835 41.3241 88.2521 34.9692 88.6504 31.7393C89.0714 28.3283 89.3155 25.2013 89.2332 24.2788C88.9596 21.2125 86.8209 18.4642 83.8329 17.34C82.5468 16.8562 81.6662 16.7785 77.4636 16.7785H72.5869L72.8163 14.1918C73.1464 10.4698 73.048 8.28523 72.4824 6.776C70.9004 2.55453 67.2854 0.0204144 62.8264 0.00671198L60.6713 0L60.6691 2.30704ZM17.4767 25.6339C17.3746 25.7363 17.2912 28.6199 17.2912 32.0416V38.2631L19.4463 38.4334C23.6789 38.7676 28.5686 40.345 31.1906 42.2225C31.6225 42.5321 32.0507 42.7852 32.1417 42.7852C32.2329 42.7852 32.3074 38.8842 32.3074 34.1163V25.4474H24.9848C20.9571 25.4474 17.5785 25.5313 17.4767 25.6339ZM14.749 43.8937C11.2967 44.6258 8.20558 46.3115 5.75099 48.8003C3.52859 51.0534 2.33898 52.9359 1.24391 55.9317C0.546768 57.8394 0.479472 58.3612 0.488649 61.8008C0.498104 65.3321 0.554555 65.7239 1.36181 67.8677C2.48469 70.8484 3.77859 72.772 6.24736 75.1297C11.8314 80.4627 20.0692 81.5139 27.1585 77.798C31.1651 75.6979 34.9041 70.979 36.067 66.5547C38.7332 56.4104 32.3627 45.989 22.2068 43.8814C19.0906 43.2346 17.8457 43.2368 14.749 43.8937ZM25.7303 55.9077C26.5949 56.819 27.302 57.6697 27.302 57.7978C27.302 57.9261 24.8616 60.4829 21.8789 63.4792L16.4559 68.9275L13.1937 65.647L9.93161 62.3668L11.726 60.5461L13.5205 58.7256L14.9337 60.1288L16.3466 61.5324L19.9474 57.9026C21.9276 55.9063 23.6853 54.2678 23.8533 54.2617C24.0212 54.2555 24.8658 54.9963 25.7303 55.9077Z" fill="#7D58DB"/>
</svg>
