<svg width="80" height="79" viewBox="0 0 80 79" fill="none" xmlns="http://www.w3.org/2000/svg">
<path fill-rule="evenodd" clip-rule="evenodd" d="M42.877 0.581921C41.406 1.27568 40.7354 1.95834 40.0585 3.45153C39.5825 4.50131 39.5546 5.03978 39.5494 13.217L39.5439 21.8713L40.1733 23.1341C40.5194 23.8286 41.1974 24.6982 41.6798 25.066C43.3698 26.3551 43.9426 26.4123 55.1452 26.4123C63.3405 26.4123 65.6479 26.4825 66.2777 26.7501C66.7147 26.936 69.0089 28.3803 71.376 29.9597C75.027 32.396 75.8257 32.8315 76.6415 32.8315C77.375 32.8315 77.7742 32.6604 78.3248 32.1098L79.0464 31.3882L79.044 17.9754L79.0415 4.56254L78.4596 3.32808C77.7658 1.85711 77.0832 1.18656 75.59 0.509583C74.5106 0.0202458 74.0474 0.00592563 59.2952 0.00296294L44.1114 0L42.877 0.581921ZM4.81288 6.67197C3.37524 6.95639 2.4689 7.47288 1.5285 8.54389C-0.00148088 10.2867 0.0414774 9.82377 0.0414774 24.5389V37.9885L0.637225 38.6813C1.14039 39.2662 1.41913 39.3726 2.42718 39.3652C3.5409 39.3568 3.92926 39.1487 8.18886 36.2791L12.7563 33.2018L24.1133 33.0683C35.0789 32.9391 35.5174 32.9157 36.84 32.3901C38.2411 31.8333 40.2846 30.4833 40.2846 30.1145C40.2846 30.0014 39.9118 29.6787 39.4561 29.397C38.3172 28.6931 36.4872 26.6921 35.8623 25.4675C34.7397 23.267 34.6061 22.0656 34.6061 14.1683V6.71863L34.0506 6.56975C33.2068 6.3436 5.99253 6.4389 4.81288 6.67197ZM15.4721 39.8279C11.5866 41.1226 9.08903 43.9635 8.40069 47.8713C7.66052 52.0736 10.0089 56.4204 14.0547 58.337C15.582 59.0604 15.923 59.1253 18.1934 59.1253C20.4803 59.1253 20.7897 59.0653 22.2789 58.3321C24.3804 57.2973 26.098 55.5847 27.0545 53.5703C27.7559 52.0936 27.8167 51.7586 27.8167 49.3731C27.8167 46.9877 27.7559 46.6527 27.0545 45.176C26.1069 43.1804 24.3836 41.4507 22.3419 40.4453C21.0494 39.8091 20.4356 39.6679 18.6266 39.5909C17.2413 39.5318 16.1034 39.6173 15.4721 39.8279ZM58.2901 39.821C54.6554 40.8468 51.6757 44.2729 51.1685 48.0093C50.5918 52.2608 52.8417 56.3787 56.809 58.3321C58.2982 59.0653 58.6076 59.1253 60.8945 59.1253C63.1649 59.1253 63.5059 59.0604 65.0332 58.337C71.3044 55.3662 72.7559 47.2561 67.8872 42.3876C66.1345 40.635 63.9093 39.6699 61.4049 39.5765C60.2897 39.5348 58.9239 39.642 58.2901 39.821ZM7.23389 62.7245C4.58278 63.2454 2.02055 65.2885 0.828565 67.8317C0.20566 69.1612 0.159985 69.5009 0.0824613 73.3815L0 77.5152L0.742399 78.2576L1.4848 79H18.0415H34.5982L35.4046 78.2801L36.2109 77.5604L36.2946 74.5246C36.4245 69.8026 35.8507 67.7267 33.8003 65.5025C32.5192 64.1123 30.9981 63.2148 29.2108 62.7941C27.6041 62.4159 9.10236 62.3571 7.23389 62.7245ZM49.7613 62.8069C48.0898 63.2126 46.5344 64.1498 45.2876 65.5025C43.2372 67.7267 42.6634 69.8026 42.7933 74.5246L42.877 77.5604L43.6833 78.2801L44.4897 79H61.0464H77.6031L78.3455 78.2576L79.0879 77.5152L79.0054 73.3815C78.9257 69.3876 78.8985 69.1977 78.1971 67.7697C76.8706 65.0675 74.5256 63.2526 71.6592 62.7089C69.6982 62.3371 51.3591 62.4191 49.7613 62.8069Z" fill="white"/>
</svg>
