<svg width="79" height="79" viewBox="0 0 79 79" fill="none" xmlns="http://www.w3.org/2000/svg">
<path fill-rule="evenodd" clip-rule="evenodd" d="M15.9234 0.342909C14.7787 0.842831 13.6102 1.93501 13.0209 3.05533C12.5245 3.99937 12.4783 4.50251 12.3884 9.96758C12.2613 17.6965 12.402 19.1652 13.4144 20.68C13.9633 21.5013 14.5935 22.0501 15.5356 22.5273L16.8761 23.2063H27.0819H37.288L41.733 26.1762C44.1775 27.8095 46.4987 29.2103 46.8909 29.2888C47.833 29.4771 49.0375 28.7585 49.3678 27.811C49.5076 27.4103 49.6219 26.2105 49.6219 25.1445V23.2063L51.0414 23.2048C53.2119 23.2028 54.2927 22.7996 55.5827 21.5115C57.2501 19.846 57.3147 19.4333 57.2269 11.0124L57.1516 3.78657L56.4072 2.58305C55.8653 1.70739 55.303 1.19167 54.3421 0.689768L53.0218 0L34.843 0.00962849C20.4099 0.0172816 16.5115 0.0859125 15.9234 0.342909ZM47.243 10.032C48.1962 10.9852 48.1498 12.3314 47.1341 13.1858L46.3747 13.825H34.8978C27.4982 13.825 23.2519 13.7346 22.9458 13.5707C22.2222 13.1836 21.6682 11.9297 21.8516 11.0943C21.9385 10.6986 22.294 10.1513 22.6414 9.87796C23.2539 9.39606 23.6232 9.38125 34.9323 9.38125H46.592L47.243 10.032ZM56.187 28.7407C53.6012 29.8292 51.8287 31.6588 50.8533 34.246C50.0914 36.2669 50.2302 39.3371 51.17 41.2582C52.1099 43.1792 53.7894 44.8271 55.7471 45.7491C57.2002 46.4335 57.6502 46.5263 59.4969 46.5214C62.4179 46.5135 64.0115 45.857 66.0438 43.825C68.0758 41.7927 68.7322 40.1992 68.7401 37.2781C68.7451 35.4308 68.6525 34.9817 67.9664 33.5254C67.0132 31.5015 65.4969 29.9398 63.5708 28.9972C62.3591 28.4044 61.7439 28.2726 59.881 28.2062C57.9453 28.1373 57.4495 28.2092 56.187 28.7407ZM1.30943 33.0704C0.788272 33.3881 0.427341 33.8695 0.245641 34.4889C0.0555476 35.1372 -0.0059244 39.0697 0.0469069 47.2353L0.123438 59.0441L0.929731 59.7642L1.73602 60.4844H7.4102C10.5309 60.4844 13.0844 60.5192 13.0844 60.5614C13.0844 60.6039 12.7511 61.6247 12.3438 62.8297C11.9364 64.0347 11.6031 65.0555 11.6031 65.098C11.6031 65.1402 15.8247 65.175 20.9844 65.175C26.1441 65.175 30.3656 65.1402 30.3656 65.098C30.3656 65.0555 30.0323 64.0347 29.625 62.8297C29.2177 61.6247 28.8844 60.6039 28.8844 60.5614C28.8844 60.5192 31.3788 60.4844 34.4275 60.4844C37.8425 60.4844 40.1932 60.3829 40.5509 60.22C41.854 59.6262 41.8399 59.7618 41.9184 47.2213C41.9678 39.3193 41.9041 35.2389 41.7206 34.5578C41.5308 33.8525 41.2143 33.4089 40.6601 33.0709C39.8952 32.6045 39.2766 32.5892 20.9844 32.5892C2.69958 32.5892 2.07326 32.6045 1.30943 33.0704ZM49.808 49.89C48.8921 50.578 47.7641 51.6045 47.3015 52.1711L46.4601 53.2016L46.3681 56.5344C46.2614 60.3898 45.8822 61.5541 44.1864 63.2331C42.2415 65.1587 41.3014 65.0437 59.5621 65.115L75.7906 65.1785V63.3469C75.7906 57.7028 73.1167 52.3987 68.8092 49.4979L67.6257 48.701L66.0917 49.512C63.7197 50.7661 61.7822 51.1762 58.8797 51.0389C56.2947 50.9165 53.8464 50.2025 52.3439 49.1328C51.959 48.8585 51.6058 48.6354 51.5589 48.6368C51.512 48.6381 50.7239 49.2019 49.808 49.89ZM1.38127 69.9957C0.115044 70.6561 0.0162932 70.9719 0.00789943 74.3901L0 77.5568L0.721615 78.2784L1.44323 79H39.5H77.5568L78.2784 78.2784C78.9998 77.557 79 77.5553 79 74.4432C79 70.9659 78.7914 70.3463 77.4657 69.8841C76.9359 69.6995 65.3683 69.6192 39.4015 69.6202C6.55996 69.6217 2.01277 69.6666 1.38127 69.9957Z" fill="white"/>
</svg>
