<svg width="24" height="19" viewBox="0 0 24 19" fill="none" xmlns="http://www.w3.org/2000/svg">
<path d="M21.6406 0.986908C21.2942 0.997229 20.9654 1.142 20.7239 1.39055L6.99995 15.1145L2.60932 10.7239C2.48646 10.5959 2.33931 10.4938 2.17647 10.4234C2.01363 10.353 1.83839 10.3158 1.661 10.314C1.48361 10.3122 1.30765 10.3458 1.14341 10.4129C0.979173 10.4799 0.829967 10.5791 0.704529 10.7045C0.57909 10.8299 0.479941 10.9792 0.412889 11.1434C0.345837 11.3076 0.312229 11.4836 0.314034 11.661C0.315839 11.8384 0.353019 12.0136 0.423399 12.1764C0.493779 12.3393 0.595943 12.4864 0.723908 12.6093L6.05724 17.9426C6.3073 18.1926 6.64639 18.333 6.99995 18.333C7.35351 18.333 7.6926 18.1926 7.94266 17.9426L22.6093 3.27597C22.802 3.08869 22.9336 2.84757 22.9869 2.58421C23.0401 2.32085 23.0126 2.04753 22.9079 1.80009C22.8032 1.55264 22.6261 1.3426 22.4 1.19749C22.1739 1.05239 21.9092 0.978987 21.6406 0.986908Z" fill="#4CAF50"/>
</svg>
