<svg width="115" height="119" viewBox="0 0 115 119" fill="none" xmlns="http://www.w3.org/2000/svg">
<path d="M82.2573 65.8213H12.3047" stroke="#BAC5C7" stroke-width="2.70589" stroke-miterlimit="10" stroke-linecap="round"/>
<path d="M4.18042 88.0515C2.62318 88.0515 1.35547 86.7892 1.35547 85.2387V32.459L1.43394 85.2387C1.43394 86.7499 2.66647 87.9798 4.18042 87.9798H90.5308C92.0447 87.9798 93.2759 86.7499 93.2759 85.2387V32.459L93.3557 85.2387C93.3557 86.7892 92.088 88.0515 90.5308 88.0515H4.18042Z" stroke="#BAC5C7" stroke-width="2.70589" stroke-linecap="round" stroke-linejoin="round"/>
<path d="M79.3867 8.84888H91.225C91.4672 8.84888 91.9218 8.84888 91.9218 10.237V22.7382H2.78571V10.237C2.78571 9.46989 3.40942 8.84888 4.17925 8.84888H15.3207C16.0892 8.84888 16.7129 8.22653 16.7129 7.45941C16.7129 6.69229 16.0892 6.07129 15.3207 6.07129H4.17925C1.87518 6.07129 0 7.94106 0 10.237V24.1263C0 24.8935 0.623706 25.5158 1.39353 25.5158H93.3139C94.0824 25.5158 94.7061 24.8935 94.7061 24.1263V10.237C94.7061 7.16447 92.9067 6.07129 91.225 6.07129H79.3867C78.6183 6.07129 77.9946 6.69229 77.9946 7.45941C77.9946 8.22653 78.6183 8.84888 79.3867 8.84888Z" fill="#BAC5C7"/>
<path d="M57.0586 35.1426V76.4345" stroke="#BAC5C7" stroke-width="2.70589" stroke-miterlimit="10" stroke-linecap="round"/>
<path d="M76.5352 35.1426V76.4345" stroke="#BAC5C7" stroke-width="2.70589" stroke-miterlimit="10" stroke-linecap="round"/>
<path d="M114.997 85.0712C114.997 103.379 100.153 118.221 81.853 118.221C63.5422 118.221 48.7031 103.378 48.7031 85.0712C48.7031 66.7659 63.5422 51.9268 81.853 51.9268C100.153 51.9268 114.997 66.7659 114.997 85.0712Z" fill="white"/>
<path d="M69.8594 97.0805C70.5169 95.4948 71.4788 94.0661 72.6735 92.8701C73.8709 91.6755 75.2982 90.7162 76.8839 90.0574C78.4167 89.4215 80.093 89.0684 81.8532 89.0684C83.6134 89.0684 85.287 89.4215 86.8199 90.0574C88.4069 90.7162 89.837 91.6741 91.0316 92.8701C92.2276 94.0648 93.1896 95.4962 93.8471 97.0832C93.1896 95.4962 92.2276 94.0661 91.0316 92.8701C89.837 91.6755 88.4082 90.7162 86.8199 90.0574C85.287 89.4215 83.6134 89.0684 81.8532 89.0684C80.093 89.0684 78.4167 89.4215 76.8839 90.0574C75.2996 90.7162 73.8709 91.6741 72.6735 92.8701C71.4788 94.0648 70.5169 95.4935 69.8594 97.0805Z" stroke="#BAC5C7" stroke-width="2.70589" stroke-linecap="round" stroke-linejoin="round"/>
<path d="M107.835 85.0724C107.835 99.4217 96.201 111.056 81.8571 111.056C67.5024 111.056 55.8711 99.4217 55.8711 85.0724C55.8711 70.7231 67.5024 59.0918 81.8571 59.0918C96.201 59.0918 107.835 70.7231 107.835 85.0724Z" stroke="#BAC5C7" stroke-width="2.70589" stroke-linecap="round" stroke-linejoin="round"/>
<path d="M75.8553 77.0767C75.8553 79.286 74.0653 81.076 71.86 81.076C69.6507 81.076 67.8594 79.286 67.8594 77.0767C67.8594 74.87 69.6507 73.0801 71.86 73.0801C74.0653 73.0801 75.8553 74.87 75.8553 77.0767ZM95.8383 77.0767C95.8383 79.286 94.0537 81.076 91.843 81.076C89.6337 81.076 87.8451 79.286 87.8451 77.0767C87.8451 74.87 89.6337 73.0801 91.843 73.0801C94.0537 73.0801 95.8383 74.87 95.8383 77.0767Z" stroke="#BAC5C7" stroke-width="2.70589" stroke-linecap="round" stroke-linejoin="round"/>
<path d="M18.1016 35.1426V76.4345" stroke="#BAC5C7" stroke-width="2.70589" stroke-miterlimit="10" stroke-linecap="round"/>
<path d="M37.5781 35.1426V76.4345" stroke="#BAC5C7" stroke-width="2.70589" stroke-miterlimit="10" stroke-linecap="round"/>
<path d="M82.2573 49.0986H12.3047" stroke="#BAC5C7" stroke-width="2.70589" stroke-miterlimit="10" stroke-linecap="round"/>
<path d="M23.6758 2V13.5433" stroke="#BAC5C7" stroke-width="2.70589" stroke-miterlimit="10" stroke-linecap="round"/>
<path d="M71.0312 2V13.5433" stroke="#BAC5C7" stroke-width="2.70589" stroke-miterlimit="10" stroke-linecap="round"/>
<path d="M62.8389 7.45898H31.7617" stroke="#BAC5C7" stroke-width="2.70589" stroke-miterlimit="10" stroke-linecap="round"/>
</svg>
