<svg width="62" height="80" viewBox="0 0 62 80" fill="none" xmlns="http://www.w3.org/2000/svg">
<path fill-rule="evenodd" clip-rule="evenodd" d="M16.2154 0.453753C15.8709 0.836485 15.8045 1.5172 15.8077 4.64106C15.81 6.69246 15.8938 8.49487 15.9942 8.64612C16.5316 9.45558 17.269 9.49608 31.4602 9.49608H45.6574L46.2675 8.88235C46.8556 8.29113 46.8778 8.14564 46.8778 4.86629C46.8778 1.59145 46.7057 0.639993 46.0325 0.187765C45.8821 0.0867693 39.2043 0.00252325 31.193 0.000273357C17.3945 -0.00322648 16.6052 0.0205231 16.2154 0.453753ZM5.54918 5.10303C3.42448 5.8655 1.64831 7.9579 1.15262 10.283C0.974382 11.1185 0.888619 21.6565 0.888619 42.728C0.888619 77.5939 0.780731 75.4472 2.63894 77.5704C3.14557 78.1491 4.10562 78.9028 4.77234 79.245L5.98471 79.8678L30.968 79.9338L55.9513 80L57.4911 79.2375C59.1076 78.4373 60.2315 77.2611 60.9887 75.5775C61.3899 74.6855 61.425 72.3811 61.4871 42.762C61.562 7.04969 61.6718 9.31408 59.7567 7.12594C58.1714 5.31502 56.7545 4.7518 53.7761 4.7488L51.3524 4.7463V6.7797C51.3524 7.89815 51.2226 9.24884 51.0638 9.78156C50.6553 11.153 49.2316 12.7142 47.7617 13.4024L46.5049 13.9909L31.4652 13.9921C21.8639 13.9926 16.0906 13.8996 15.4995 13.7344C14.1216 13.3496 12.5559 12.0242 11.8499 10.6448C11.3488 9.66532 11.2049 8.95935 11.1233 7.08469L11.0214 4.7463L8.75177 4.7573C7.50335 4.7633 6.06227 4.91879 5.54918 5.10303ZM25.3409 24.1544C25.8073 24.6236 25.9962 25.0741 25.9962 25.7178C25.9962 26.5523 25.678 26.9448 21.8704 30.8083C17.8728 34.8644 17.7127 34.9949 16.728 34.9949C15.7859 34.9949 15.5609 34.8431 13.6448 32.9165C11.8139 31.0753 11.578 30.7343 11.578 29.9304C11.578 28.5702 12.4814 27.6315 13.7904 27.6315C14.6384 27.6315 14.97 27.7897 15.7352 28.5594L16.6579 29.4871L19.6711 26.4913C22.5172 23.6617 22.7402 23.4954 23.6851 23.4954C24.4346 23.4954 24.85 23.6607 25.3409 24.1544ZM50.1286 28.9759C51.1055 29.9584 51.1055 31.0318 50.1286 32.0143L49.4019 32.745H40.2901H31.1783L30.4517 32.0143C29.6746 31.2328 29.5244 30.3411 30.0142 29.4161C30.6267 28.2599 30.6123 28.2614 40.2471 28.2532L49.4019 28.2452L50.1286 28.9759ZM25.2696 40.9753C25.8108 41.5196 25.9962 41.9421 25.9962 42.631C25.9962 43.4895 25.7165 43.8407 22.1038 47.5188C18.0923 51.6026 17.1944 52.2318 16.0263 51.7778C15.6989 51.6506 14.564 50.6479 13.5046 49.5492C11.8534 47.8373 11.578 47.4278 11.578 46.6846C11.578 45.4091 12.507 44.4944 13.8026 44.4944C14.6108 44.4944 15.0055 44.6739 15.8142 45.4084L16.82 46.3221L19.8767 43.2835C22.5184 40.6569 23.0425 40.2446 23.738 40.2446C24.2961 40.2446 24.7657 40.4686 25.2696 40.9753ZM50.2563 44.6194C51.2524 45.8721 50.9059 47.4258 49.478 48.1073C48.7946 48.4332 47.3227 48.494 40.1283 48.4932C32.1031 48.4925 31.5417 48.463 30.795 48.0053C29.3323 47.1083 29.4352 44.8554 30.9755 44.0594C31.4455 43.8167 33.7092 43.7572 40.6247 43.8057L49.6597 43.8695L50.2563 44.6194ZM25.3867 56.6554C25.7971 57.1008 25.9962 57.6086 25.9962 58.2095C25.9962 59.0312 25.6636 59.437 21.8241 63.2978C17.8524 67.2919 17.6055 67.4933 16.682 67.4933C15.7975 67.4933 15.5288 67.3096 13.6448 65.4149C11.787 63.5468 11.578 63.2413 11.578 62.3958C11.578 61.6894 11.759 61.2731 12.3046 60.7244C13.3576 59.6655 14.3087 59.7382 15.6273 60.9787L16.6741 61.9634L19.6793 58.9787C22.5604 56.1171 22.7277 55.9939 23.7308 55.9939C24.5427 55.9939 24.9133 56.1419 25.3867 56.6554ZM50.1999 60.1527C51.1189 61.0771 51.0911 62.2948 50.1286 63.2628L49.4019 63.9935H40.2901H31.1783L30.4517 63.2628C29.6746 62.4813 29.5244 61.5896 30.0142 60.6647C30.6269 59.508 30.608 59.51 40.3185 59.5017L49.5444 59.4937L50.1999 60.1527Z" fill="#7D58DB"/>
</svg>
