<svg width="69" height="80" viewBox="0 0 69 80" fill="none" xmlns="http://www.w3.org/2000/svg">
<path fill-rule="evenodd" clip-rule="evenodd" d="M30.2328 0.173958C27.6099 0.616691 26.109 1.50345 24.8635 3.34715C24.4515 3.95643 23.4479 4.84804 22.6329 5.32829C21.6878 5.88518 20.9903 6.58857 20.7073 7.26965C20.1831 8.53123 20.1027 14.5322 20.5761 17.0431C20.9546 19.0501 20.759 19.6775 19.755 19.6775C19.227 19.6775 18.8337 19.9883 18.4722 20.6913C18.0185 21.5742 18.0001 22.0422 18.331 24.3186C18.7793 27.4019 19.2376 28.406 20.7121 29.5373C21.4045 30.0683 21.8756 30.7555 21.9988 31.4133C22.7529 35.4464 26.5036 39.8731 30.5508 41.5069C35.1257 43.3538 39.2016 42.3464 43.1796 38.3845C44.9763 36.5951 46.9544 33.18 46.9551 31.8664C46.9554 31.5446 47.6645 30.5259 48.5309 29.6026C50.2099 27.8142 50.6444 26.7088 50.9711 23.3966C51.194 21.1367 50.7408 19.9685 49.5256 19.6704C48.83 19.4999 48.7299 19.3059 48.7679 18.2031C48.7917 17.5039 48.9927 15.9655 49.2146 14.7845C50.6836 6.95433 47.3738 2.14055 39.345 0.429767C37.3203 -0.0016471 32.1359 -0.147177 30.2328 0.173958ZM16.4562 48.7733C14.6591 49.6572 13.1885 50.4624 13.1885 50.5627C13.1885 50.6633 13.5529 51.4682 13.9979 52.3514C14.7749 53.8937 14.8614 53.9581 16.1687 53.9649C19.9683 53.9846 24.009 57.8557 25.8942 63.2823C27.0143 66.5062 26.9548 67.0412 25.2906 68.7151C23.7019 70.3123 22.7458 70.4963 21.4325 69.4573C19.8534 68.2083 20.5133 65.5703 22.578 64.8783C23.2125 64.6655 21.0054 60.5997 19.4965 59.201C15.4753 55.4735 11.7716 57.4524 11.7561 63.3363C11.7526 64.6703 11.9349 66.3821 12.161 67.1404C12.5212 68.348 12.6476 68.4783 13.1808 68.1915C13.9491 67.7779 15.3078 67.7701 16.06 68.175C16.9466 68.652 17.4595 70.17 17.0765 71.1833C16.579 72.4992 15.531 72.9933 13.3937 72.9196C11.7217 72.862 11.4053 72.7388 10.5978 71.83C8.46371 69.4278 7.61181 62.7558 8.97632 59.1321C9.34486 58.1538 9.99415 56.9185 10.4193 56.3871L11.1921 55.4205L10.4103 53.8691L9.6285 52.3178L7.22076 53.9914C3.87526 56.3173 1.43794 59.0377 0.81759 61.1385C0.25095 63.0572 0.157045 68.3749 0.65776 70.1878C1.06618 71.6664 2.2969 72.7281 5.44076 74.3137C9.90121 76.5636 16.3735 78.364 24.2833 79.5554C28.6862 80.2187 41.3282 80.121 45.9906 79.3879C53.1991 78.2544 59.3424 76.5132 63.5173 74.4198C68.2922 72.0257 68.8235 71.1981 68.8235 66.1544C68.8235 61.7377 68.2633 59.8666 66.3071 57.7473C64.8708 56.1915 61.2945 53.3109 60.7992 53.3109C60.6699 53.3109 60.3863 53.9293 60.1689 54.6854C59.9515 55.4415 59.2585 57.1794 58.6285 58.5481C57.4881 61.0256 57.4855 61.0415 58.0081 62.3545C58.6677 64.0119 58.6777 65.919 58.0348 67.4655C55.4306 73.7336 46.2061 72.1525 45.7446 65.3592C45.5851 63.0081 46.5499 61.0234 48.5357 59.6172C49.7571 58.7524 50.1687 58.6454 52.3282 58.6315L54.7507 58.616L55.3412 57.4996C56.013 56.2296 57.693 51.3874 57.5206 51.2179C57.1311 50.8347 49.3445 47.1664 48.921 47.1664C48.6283 47.1664 47.2619 48.7549 45.7909 50.8046C40.9449 57.5588 38.0126 61.1353 37.8329 60.5108C37.7425 60.1971 37.4302 58.6308 37.1392 57.03C36.6128 54.135 36.6137 54.1123 37.3331 52.7838C38.0014 51.5494 38.0242 51.334 37.6367 49.9418L37.2174 48.4354L34.6353 48.5285L32.0533 48.6217L31.5989 49.9955C31.1773 51.2696 31.193 51.4485 31.814 52.4591C32.6109 53.7559 32.6209 54.4923 31.8912 58.3236L31.3371 61.2342L28.5203 57.6768C26.9715 55.7203 24.5991 52.5548 23.2485 50.6429C21.8113 48.6078 20.5716 47.1664 20.2586 47.1664C19.9647 47.1664 18.2535 47.8895 16.4562 48.7733ZM50.0542 62.8952C48.1829 64.7774 49.4538 67.8639 52.1002 67.8639C53.9111 67.8639 54.9952 66.774 54.9952 64.9533C54.9952 62.2503 51.9552 60.9839 50.0542 62.8952Z" fill="#7D58DB"/>
</svg>
