<svg width="17" height="16" viewBox="0 0 17 16" fill="none" xmlns="http://www.w3.org/2000/svg">
<path d="M13.1906 0.189173H3.54776C1.95067 0.189173 0.654907 1.48493 0.654907 3.08203V12.7249C0.654907 14.322 1.95067 15.6177 3.54776 15.6177H8.89151V9.64118H6.88259V7.31083H8.89151V5.59319C8.89151 3.60435 10.117 2.51953 11.8949 2.51953C12.7386 2.51953 13.4719 2.5798 13.6828 2.60993V4.68917L12.4574 4.69922C11.483 4.69922 11.3022 5.15123 11.3022 5.82422V7.31083H13.6025L13.3011 9.64118H11.3022V15.6177H13.1906C14.7877 15.6177 16.0835 14.322 16.0835 12.7249V3.08203C16.0835 1.48493 14.7877 0.189173 13.1906 0.189173Z" fill="white"/>
</svg>
