<svg width="24" height="16" viewBox="0 0 24 16" fill="none" xmlns="http://www.w3.org/2000/svg">
<path d="M15.2864 8.07422C15.2864 7.59208 15.2362 7.22042 15.1659 6.84877H8.21502V9.38002H12.3936C12.2228 10.4548 11.128 12.5541 8.21502 12.5541C5.70386 12.5541 3.65475 10.4749 3.65475 7.90346C3.65475 5.33203 5.70386 3.25279 8.21502 3.25279C9.6514 3.25279 10.6056 3.86551 11.1481 4.38783L13.1469 2.46931C11.8612 1.26395 10.2039 0.540736 8.21502 0.540736C4.14694 0.540736 0.852295 3.83538 0.852295 7.90346C0.852295 11.9715 4.14694 15.2662 8.21502 15.2662C12.4639 15.2662 15.2864 12.2829 15.2864 8.07422ZM23.9952 6.84877H21.8958V4.74944H19.7864V6.84877H17.6871V8.95815H19.7864V11.0575H21.8958V8.95815H23.9952V6.84877Z" fill="white"/>
</svg>
