<svg width="17" height="14" viewBox="0 0 17 14" fill="none" xmlns="http://www.w3.org/2000/svg">
<path d="M16.2406 2.00167C15.658 2.25279 15.0252 2.43359 14.3723 2.50391C15.0453 2.10212 15.5575 1.46931 15.7986 0.71596C15.1759 1.08761 14.4727 1.35882 13.7395 1.49944C13.1468 0.866629 12.3031 0.474888 11.3689 0.474888C9.57094 0.474888 8.12451 1.93136 8.12451 3.71931C8.12451 3.97042 8.15465 4.22154 8.20487 4.46261C5.5129 4.32199 3.11224 3.03627 1.51514 1.06752C1.23389 1.54966 1.07317 2.10212 1.07317 2.7048C1.07317 3.8298 1.64572 4.82422 2.5196 5.40681C1.98724 5.38672 1.485 5.23605 1.05308 4.99498C1.05308 5.00502 1.05308 5.02511 1.05308 5.03516C1.05308 6.61216 2.16804 7.91797 3.65465 8.21931C3.38344 8.28962 3.09215 8.3298 2.80085 8.3298C2.58991 8.3298 2.38902 8.30971 2.18813 8.27958C2.59996 9.56529 3.79527 10.4994 5.22161 10.5296C4.10665 11.4035 2.71045 11.9157 1.19371 11.9157C0.922503 11.9157 0.671387 11.9057 0.410226 11.8756C1.84661 12.7997 3.5542 13.332 5.39237 13.332C11.3589 13.332 14.6234 8.39007 14.6234 4.101C14.6234 3.96038 14.6234 3.81975 14.6134 3.67913C15.2462 3.21708 15.7986 2.64453 16.2406 2.00167Z" fill="white"/>
</svg>
