<svg width="420" height="64" viewBox="0 0 420 64" fill="none" xmlns="http://www.w3.org/2000/svg">
<rect width="420" height="64" rx="5" fill="#4267B2"/>
<path d="M113.915 35.59C114.062 35.59 114.192 35.6467 114.305 35.76L115.365 36.91C114.778 37.6367 114.055 38.1933 113.195 38.58C112.342 38.9667 111.315 39.16 110.115 39.16C109.042 39.16 108.075 38.9767 107.215 38.61C106.362 38.2433 105.632 37.7333 105.025 37.08C104.418 36.4267 103.952 35.6467 103.625 34.74C103.305 33.8333 103.145 32.8433 103.145 31.77C103.145 30.6833 103.318 29.69 103.665 28.79C104.012 27.8833 104.498 27.1033 105.125 26.45C105.758 25.7967 106.512 25.29 107.385 24.93C108.258 24.5633 109.225 24.38 110.285 24.38C111.338 24.38 112.272 24.5533 113.085 24.9C113.905 25.2467 114.602 25.7 115.175 26.26L114.275 27.51C114.222 27.59 114.152 27.66 114.065 27.72C113.985 27.78 113.872 27.81 113.725 27.81C113.625 27.81 113.522 27.7833 113.415 27.73C113.308 27.67 113.192 27.6 113.065 27.52C112.938 27.4333 112.792 27.34 112.625 27.24C112.458 27.14 112.265 27.05 112.045 26.97C111.825 26.8833 111.568 26.8133 111.275 26.76C110.988 26.7 110.655 26.67 110.275 26.67C109.628 26.67 109.035 26.7867 108.495 27.02C107.962 27.2467 107.502 27.58 107.115 28.02C106.728 28.4533 106.428 28.9867 106.215 29.62C106.002 30.2467 105.895 30.9633 105.895 31.77C105.895 32.5833 106.008 33.3067 106.235 33.94C106.468 34.5733 106.782 35.1067 107.175 35.54C107.568 35.9733 108.032 36.3067 108.565 36.54C109.098 36.7667 109.672 36.88 110.285 36.88C110.652 36.88 110.982 36.86 111.275 36.82C111.575 36.78 111.848 36.7167 112.095 36.63C112.348 36.5433 112.585 36.4333 112.805 36.3C113.032 36.16 113.255 35.99 113.475 35.79C113.542 35.73 113.612 35.6833 113.685 35.65C113.758 35.61 113.835 35.59 113.915 35.59ZM121.143 28.58C121.903 28.58 122.593 28.7033 123.213 28.95C123.839 29.1967 124.373 29.5467 124.813 30C125.259 30.4533 125.603 31.0067 125.843 31.66C126.083 32.3133 126.203 33.0433 126.203 33.85C126.203 34.6633 126.083 35.3967 125.843 36.05C125.603 36.7033 125.259 37.26 124.813 37.72C124.373 38.18 123.839 38.5333 123.213 38.78C122.593 39.0267 121.903 39.15 121.143 39.15C120.376 39.15 119.679 39.0267 119.053 38.78C118.426 38.5333 117.889 38.18 117.443 37.72C117.003 37.26 116.659 36.7033 116.413 36.05C116.173 35.3967 116.053 34.6633 116.053 33.85C116.053 33.0433 116.173 32.3133 116.413 31.66C116.659 31.0067 117.003 30.4533 117.443 30C117.889 29.5467 118.426 29.1967 119.053 28.95C119.679 28.7033 120.376 28.58 121.143 28.58ZM121.143 37.25C121.996 37.25 122.626 36.9633 123.033 36.39C123.446 35.8167 123.653 34.9767 123.653 33.87C123.653 32.7633 123.446 31.92 123.033 31.34C122.626 30.76 121.996 30.47 121.143 30.47C120.276 30.47 119.633 30.7633 119.213 31.35C118.799 31.93 118.593 32.77 118.593 33.87C118.593 34.97 118.799 35.81 119.213 36.39C119.633 36.9633 120.276 37.25 121.143 37.25ZM130.397 30C130.604 29.7933 130.821 29.6033 131.047 29.43C131.281 29.25 131.524 29.1 131.777 28.98C132.037 28.8533 132.314 28.7567 132.607 28.69C132.901 28.6167 133.221 28.58 133.567 28.58C134.127 28.58 134.624 28.6767 135.057 28.87C135.491 29.0567 135.851 29.3233 136.137 29.67C136.431 30.01 136.651 30.42 136.797 30.9C136.951 31.3733 137.027 31.8967 137.027 32.47V39H134.557V32.47C134.557 31.8433 134.414 31.36 134.127 31.02C133.841 30.6733 133.404 30.5 132.817 30.5C132.391 30.5 131.991 30.5967 131.617 30.79C131.244 30.9833 130.891 31.2467 130.557 31.58V39H128.087V28.74H129.597C129.917 28.74 130.127 28.89 130.227 29.19L130.397 30ZM149.59 39H147.12V30.59H142.36V36.15C142.36 36.47 142.436 36.72 142.59 36.9C142.75 37.08 142.966 37.17 143.24 37.17C143.393 37.17 143.52 37.1533 143.62 37.12C143.726 37.08 143.816 37.04 143.89 37C143.97 36.96 144.04 36.9233 144.1 36.89C144.16 36.85 144.22 36.83 144.28 36.83C144.353 36.83 144.413 36.85 144.46 36.89C144.506 36.9233 144.556 36.9767 144.61 37.05L145.35 38.25C144.99 38.55 144.576 38.7767 144.11 38.93C143.643 39.0833 143.16 39.16 142.66 39.16C141.766 39.16 141.08 38.91 140.6 38.41C140.126 37.9033 139.89 37.2067 139.89 36.32V30.59H138.84C138.706 30.59 138.593 30.5467 138.5 30.46C138.406 30.3733 138.36 30.2433 138.36 30.07V29.09L140.01 28.81L140.53 26.02C140.563 25.8867 140.626 25.7833 140.72 25.71C140.813 25.6367 140.933 25.6 141.08 25.6H142.36V28.83H149.59V39ZM150.02 25.71C150.02 25.9233 149.976 26.1267 149.89 26.32C149.803 26.5067 149.686 26.67 149.54 26.81C149.4 26.95 149.23 27.0633 149.03 27.15C148.836 27.23 148.63 27.27 148.41 27.27C148.196 27.27 147.996 27.23 147.81 27.15C147.623 27.0633 147.46 26.95 147.32 26.81C147.18 26.67 147.066 26.5067 146.98 26.32C146.9 26.1267 146.86 25.9233 146.86 25.71C146.86 25.49 146.9 25.2867 146.98 25.1C147.066 24.9067 147.18 24.74 147.32 24.6C147.46 24.4533 147.623 24.34 147.81 24.26C147.996 24.1733 148.196 24.13 148.41 24.13C148.63 24.13 148.836 24.1733 149.03 24.26C149.23 24.34 149.4 24.4533 149.54 24.6C149.686 24.74 149.803 24.9067 149.89 25.1C149.976 25.2867 150.02 25.49 150.02 25.71ZM154.421 30C154.627 29.7933 154.844 29.6033 155.071 29.43C155.304 29.25 155.547 29.1 155.801 28.98C156.061 28.8533 156.337 28.7567 156.631 28.69C156.924 28.6167 157.244 28.58 157.591 28.58C158.151 28.58 158.647 28.6767 159.081 28.87C159.514 29.0567 159.874 29.3233 160.161 29.67C160.454 30.01 160.674 30.42 160.821 30.9C160.974 31.3733 161.051 31.8967 161.051 32.47V39H158.581V32.47C158.581 31.8433 158.437 31.36 158.151 31.02C157.864 30.6733 157.427 30.5 156.841 30.5C156.414 30.5 156.014 30.5967 155.641 30.79C155.267 30.9833 154.914 31.2467 154.581 31.58V39H152.111V28.74H153.621C153.941 28.74 154.151 28.89 154.251 29.19L154.421 30ZM172.24 28.74V39H170.73C170.403 39 170.196 38.85 170.11 38.55L169.94 37.73C169.52 38.1567 169.056 38.5033 168.55 38.77C168.043 39.03 167.446 39.16 166.76 39.16C166.2 39.16 165.703 39.0667 165.27 38.88C164.843 38.6867 164.483 38.4167 164.19 38.07C163.896 37.7233 163.673 37.3133 163.52 36.84C163.373 36.36 163.3 35.8333 163.3 35.26V28.74H165.77V35.26C165.77 35.8867 165.913 36.3733 166.2 36.72C166.493 37.06 166.93 37.23 167.51 37.23C167.936 37.23 168.336 37.1367 168.71 36.95C169.083 36.7567 169.436 36.4933 169.77 36.16V28.74H172.24ZM181.299 32.69C181.299 32.37 181.252 32.07 181.159 31.79C181.072 31.5033 180.939 31.2533 180.759 31.04C180.579 30.8267 180.349 30.66 180.069 30.54C179.795 30.4133 179.475 30.35 179.109 30.35C178.395 30.35 177.832 30.5533 177.419 30.96C177.012 31.3667 176.752 31.9433 176.639 32.69H181.299ZM176.589 34.18C176.629 34.7067 176.722 35.1633 176.869 35.55C177.015 35.93 177.209 36.2467 177.449 36.5C177.689 36.7467 177.972 36.9333 178.299 37.06C178.632 37.18 178.999 37.24 179.399 37.24C179.799 37.24 180.142 37.1933 180.429 37.1C180.722 37.0067 180.975 36.9033 181.189 36.79C181.409 36.6767 181.599 36.5733 181.759 36.48C181.925 36.3867 182.085 36.34 182.239 36.34C182.445 36.34 182.599 36.4167 182.699 36.57L183.409 37.47C183.135 37.79 182.829 38.06 182.489 38.28C182.149 38.4933 181.792 38.6667 181.419 38.8C181.052 38.9267 180.675 39.0167 180.289 39.07C179.909 39.1233 179.539 39.15 179.179 39.15C178.465 39.15 177.802 39.0333 177.189 38.8C176.575 38.56 176.042 38.21 175.589 37.75C175.135 37.2833 174.779 36.71 174.519 36.03C174.259 35.3433 174.129 34.55 174.129 33.65C174.129 32.95 174.242 32.2933 174.469 31.68C174.695 31.06 175.019 30.5233 175.439 30.07C175.865 29.61 176.382 29.2467 176.989 28.98C177.602 28.7133 178.292 28.58 179.059 28.58C179.705 28.58 180.302 28.6833 180.849 28.89C181.395 29.0967 181.865 29.4 182.259 29.8C182.652 30.1933 182.959 30.68 183.179 31.26C183.405 31.8333 183.519 32.49 183.519 33.23C183.519 33.6033 183.479 33.8567 183.399 33.99C183.319 34.1167 183.165 34.18 182.939 34.18H176.589ZM204.475 28.74L201.215 39H199.235C199.009 39 198.852 38.8533 198.765 38.56L196.925 32.63C196.865 32.43 196.809 32.2333 196.755 32.04C196.709 31.84 196.669 31.64 196.635 31.44C196.595 31.64 196.549 31.8433 196.495 32.05C196.449 32.25 196.395 32.45 196.335 32.65L194.465 38.56C194.385 38.8533 194.209 39 193.935 39H192.035L188.785 28.74H190.755C190.935 28.74 191.089 28.7833 191.215 28.87C191.342 28.9567 191.425 29.0667 191.465 29.2L192.935 34.68C193.009 34.98 193.072 35.2733 193.125 35.56C193.185 35.8467 193.235 36.1333 193.275 36.42C193.349 36.1333 193.425 35.8467 193.505 35.56C193.592 35.2733 193.682 34.98 193.775 34.68L195.475 29.18C195.515 29.0467 195.592 28.9367 195.705 28.85C195.825 28.7633 195.969 28.72 196.135 28.72H197.225C197.399 28.72 197.545 28.7633 197.665 28.85C197.792 28.9367 197.875 29.0467 197.915 29.18L199.565 34.68C199.652 34.98 199.732 35.2767 199.805 35.57C199.885 35.8567 199.962 36.1433 200.035 36.43C200.122 35.8633 200.245 35.28 200.405 34.68L201.915 29.2C201.962 29.0667 202.045 28.9567 202.165 28.87C202.285 28.7833 202.429 28.74 202.595 28.74H204.475ZM208.44 28.74V39H205.96V28.74H208.44ZM208.78 25.75C208.78 25.9633 208.737 26.1633 208.65 26.35C208.563 26.5367 208.447 26.7 208.3 26.84C208.16 26.98 207.993 27.0933 207.8 27.18C207.607 27.26 207.4 27.3 207.18 27.3C206.967 27.3 206.763 27.26 206.57 27.18C206.383 27.0933 206.22 26.98 206.08 26.84C205.94 26.7 205.827 26.5367 205.74 26.35C205.66 26.1633 205.62 25.9633 205.62 25.75C205.62 25.53 205.66 25.3233 205.74 25.13C205.827 24.9367 205.94 24.77 206.08 24.63C206.22 24.49 206.383 24.38 206.57 24.3C206.763 24.2133 206.967 24.17 207.18 24.17C207.4 24.17 207.607 24.2133 207.8 24.3C207.993 24.38 208.16 24.49 208.3 24.63C208.447 24.77 208.563 24.9367 208.65 25.13C208.737 25.3233 208.78 25.53 208.78 25.75ZM214.378 39.16C213.485 39.16 212.798 38.91 212.318 38.41C211.845 37.9033 211.608 37.2067 211.608 36.32V30.59H210.558C210.425 30.59 210.312 30.5467 210.218 30.46C210.125 30.3733 210.078 30.2433 210.078 30.07V29.09L211.728 28.82L212.248 26.02C212.282 25.8867 212.345 25.7833 212.438 25.71C212.532 25.6367 212.652 25.6 212.798 25.6H214.078V28.83H216.818V30.59H214.078V36.15C214.078 36.47 214.155 36.72 214.308 36.9C214.468 37.08 214.685 37.17 214.958 37.17C215.112 37.17 215.238 37.1533 215.338 37.12C215.445 37.08 215.535 37.04 215.608 37C215.688 36.96 215.758 36.9233 215.818 36.89C215.878 36.85 215.938 36.83 215.998 36.83C216.072 36.83 216.132 36.85 216.178 36.89C216.225 36.9233 216.275 36.9767 216.328 37.05L217.068 38.25C216.708 38.55 216.295 38.7767 215.828 38.93C215.362 39.0833 214.878 39.16 214.378 39.16ZM220.87 29.84C221.27 29.4667 221.71 29.1633 222.19 28.93C222.67 28.6967 223.233 28.58 223.88 28.58C224.44 28.58 224.936 28.6767 225.37 28.87C225.803 29.0567 226.163 29.3233 226.45 29.67C226.743 30.01 226.963 30.42 227.11 30.9C227.263 31.3733 227.34 31.8967 227.34 32.47V39H224.87V32.47C224.87 31.8433 224.726 31.36 224.44 31.02C224.153 30.6733 223.716 30.5 223.13 30.5C222.703 30.5 222.303 30.5967 221.93 30.79C221.556 30.9833 221.203 31.2467 220.87 31.58V39H218.4V24.14H220.87V29.84ZM237.642 26.68V30.96H243.062V33.11H237.642V39H234.942V24.54H244.062V26.68H237.642ZM249.953 34.62C249.239 34.6533 248.639 34.7167 248.153 34.81C247.666 34.8967 247.276 35.01 246.983 35.15C246.689 35.29 246.479 35.4533 246.353 35.64C246.226 35.8267 246.163 36.03 246.163 36.25C246.163 36.6833 246.289 36.9933 246.543 37.18C246.803 37.3667 247.139 37.46 247.553 37.46C248.059 37.46 248.496 37.37 248.863 37.19C249.236 37.0033 249.599 36.7233 249.953 36.35V34.62ZM244.293 30.17C245.473 29.09 246.893 28.55 248.553 28.55C249.153 28.55 249.689 28.65 250.163 28.85C250.636 29.0433 251.036 29.3167 251.363 29.67C251.689 30.0167 251.936 30.4333 252.103 30.92C252.276 31.4067 252.363 31.94 252.363 32.52V39H251.243C251.009 39 250.829 38.9667 250.703 38.9C250.576 38.8267 250.476 38.6833 250.403 38.47L250.183 37.73C249.923 37.9633 249.669 38.17 249.423 38.35C249.176 38.5233 248.919 38.67 248.653 38.79C248.386 38.91 248.099 39 247.793 39.06C247.493 39.1267 247.159 39.16 246.793 39.16C246.359 39.16 245.959 39.1033 245.593 38.99C245.226 38.87 244.909 38.6933 244.643 38.46C244.376 38.2267 244.169 37.9367 244.023 37.59C243.876 37.2433 243.803 36.84 243.803 36.38C243.803 36.12 243.846 35.8633 243.933 35.61C244.019 35.35 244.159 35.1033 244.353 34.87C244.553 34.6367 244.809 34.4167 245.123 34.21C245.436 34.0033 245.819 33.8233 246.273 33.67C246.733 33.5167 247.266 33.3933 247.873 33.3C248.479 33.2 249.173 33.14 249.953 33.12V32.52C249.953 31.8333 249.806 31.3267 249.513 31C249.219 30.6667 248.796 30.5 248.243 30.5C247.843 30.5 247.509 30.5467 247.243 30.64C246.983 30.7333 246.753 30.84 246.553 30.96C246.353 31.0733 246.169 31.1767 246.003 31.27C245.843 31.3633 245.663 31.41 245.463 31.41C245.289 31.41 245.143 31.3667 245.023 31.28C244.903 31.1867 244.806 31.08 244.733 30.96L244.293 30.17ZM262.039 30.91C261.965 31.0033 261.892 31.0767 261.819 31.13C261.752 31.1833 261.652 31.21 261.519 31.21C261.392 31.21 261.269 31.1733 261.149 31.1C261.029 31.02 260.885 30.9333 260.719 30.84C260.552 30.74 260.352 30.6533 260.119 30.58C259.892 30.5 259.609 30.46 259.269 30.46C258.835 30.46 258.455 30.54 258.129 30.7C257.802 30.8533 257.529 31.0767 257.309 31.37C257.095 31.6633 256.935 32.02 256.829 32.44C256.722 32.8533 256.669 33.3233 256.669 33.85C256.669 34.3967 256.725 34.8833 256.839 35.31C256.959 35.7367 257.129 36.0967 257.349 36.39C257.569 36.6767 257.835 36.8967 258.149 37.05C258.462 37.1967 258.815 37.27 259.209 37.27C259.602 37.27 259.919 37.2233 260.159 37.13C260.405 37.03 260.612 36.9233 260.779 36.81C260.945 36.69 261.089 36.5833 261.209 36.49C261.335 36.39 261.475 36.34 261.629 36.34C261.829 36.34 261.979 36.4167 262.079 36.57L262.789 37.47C262.515 37.79 262.219 38.06 261.899 38.28C261.579 38.4933 261.245 38.6667 260.899 38.8C260.559 38.9267 260.205 39.0167 259.839 39.07C259.479 39.1233 259.119 39.15 258.759 39.15C258.125 39.15 257.529 39.0333 256.969 38.8C256.409 38.56 255.919 38.2133 255.499 37.76C255.079 37.3067 254.745 36.7533 254.499 36.1C254.259 35.44 254.139 34.69 254.139 33.85C254.139 33.0967 254.245 32.4 254.459 31.76C254.679 31.1133 254.999 30.5567 255.419 30.09C255.839 29.6167 256.359 29.2467 256.979 28.98C257.599 28.7133 258.312 28.58 259.119 28.58C259.885 28.58 260.555 28.7033 261.129 28.95C261.709 29.1967 262.229 29.55 262.689 30.01L262.039 30.91ZM270.771 32.69C270.771 32.37 270.725 32.07 270.631 31.79C270.545 31.5033 270.411 31.2533 270.231 31.04C270.051 30.8267 269.821 30.66 269.541 30.54C269.268 30.4133 268.948 30.35 268.581 30.35C267.868 30.35 267.305 30.5533 266.891 30.96C266.485 31.3667 266.225 31.9433 266.111 32.69H270.771ZM266.061 34.18C266.101 34.7067 266.195 35.1633 266.341 35.55C266.488 35.93 266.681 36.2467 266.921 36.5C267.161 36.7467 267.445 36.9333 267.771 37.06C268.105 37.18 268.471 37.24 268.871 37.24C269.271 37.24 269.615 37.1933 269.901 37.1C270.195 37.0067 270.448 36.9033 270.661 36.79C270.881 36.6767 271.071 36.5733 271.231 36.48C271.398 36.3867 271.558 36.34 271.711 36.34C271.918 36.34 272.071 36.4167 272.171 36.57L272.881 37.47C272.608 37.79 272.301 38.06 271.961 38.28C271.621 38.4933 271.265 38.6667 270.891 38.8C270.525 38.9267 270.148 39.0167 269.761 39.07C269.381 39.1233 269.011 39.15 268.651 39.15C267.938 39.15 267.275 39.0333 266.661 38.8C266.048 38.56 265.515 38.21 265.061 37.75C264.608 37.2833 264.251 36.71 263.991 36.03C263.731 35.3433 263.601 34.55 263.601 33.65C263.601 32.95 263.715 32.2933 263.941 31.68C264.168 31.06 264.491 30.5233 264.911 30.07C265.338 29.61 265.855 29.2467 266.461 28.98C267.075 28.7133 267.765 28.58 268.531 28.58C269.178 28.58 269.775 28.6833 270.321 28.89C270.868 29.0967 271.338 29.4 271.731 29.8C272.125 30.1933 272.431 30.68 272.651 31.26C272.878 31.8333 272.991 32.49 272.991 33.23C272.991 33.6033 272.951 33.8567 272.871 33.99C272.791 34.1167 272.638 34.18 272.411 34.18H266.061ZM277.315 36.34C277.595 36.68 277.898 36.92 278.225 37.06C278.558 37.2 278.908 37.27 279.275 37.27C279.655 37.27 279.995 37.2033 280.295 37.07C280.602 36.93 280.862 36.7167 281.075 36.43C281.288 36.1367 281.452 35.7667 281.565 35.32C281.678 34.8667 281.735 34.3267 281.735 33.7C281.735 32.5733 281.548 31.76 281.175 31.26C280.802 30.7533 280.265 30.5 279.565 30.5C279.092 30.5 278.678 30.61 278.325 30.83C277.972 31.0433 277.635 31.3467 277.315 31.74V36.34ZM277.315 30C277.728 29.5667 278.185 29.2233 278.685 28.97C279.192 28.71 279.768 28.58 280.415 28.58C281.008 28.58 281.542 28.6967 282.015 28.93C282.495 29.1633 282.902 29.5 283.235 29.94C283.575 30.3733 283.835 30.9 284.015 31.52C284.195 32.14 284.285 32.8367 284.285 33.61C284.285 34.4433 284.182 35.2 283.975 35.88C283.768 36.56 283.472 37.1433 283.085 37.63C282.705 38.11 282.245 38.4833 281.705 38.75C281.165 39.0167 280.565 39.15 279.905 39.15C279.585 39.15 279.295 39.1167 279.035 39.05C278.775 38.99 278.535 38.9033 278.315 38.79C278.095 38.6767 277.892 38.54 277.705 38.38C277.525 38.2133 277.352 38.03 277.185 37.83L277.075 38.52C277.035 38.6933 276.965 38.8167 276.865 38.89C276.772 38.9633 276.642 39 276.475 39H274.845V24.14H277.315V30ZM290.733 28.58C291.493 28.58 292.183 28.7033 292.803 28.95C293.429 29.1967 293.963 29.5467 294.403 30C294.849 30.4533 295.193 31.0067 295.433 31.66C295.673 32.3133 295.793 33.0433 295.793 33.85C295.793 34.6633 295.673 35.3967 295.433 36.05C295.193 36.7033 294.849 37.26 294.403 37.72C293.963 38.18 293.429 38.5333 292.803 38.78C292.183 39.0267 291.493 39.15 290.733 39.15C289.966 39.15 289.269 39.0267 288.643 38.78C288.016 38.5333 287.479 38.18 287.033 37.72C286.593 37.26 286.249 36.7033 286.003 36.05C285.763 35.3967 285.643 34.6633 285.643 33.85C285.643 33.0433 285.763 32.3133 286.003 31.66C286.249 31.0067 286.593 30.4533 287.033 30C287.479 29.5467 288.016 29.1967 288.643 28.95C289.269 28.7033 289.966 28.58 290.733 28.58ZM290.733 37.25C291.586 37.25 292.216 36.9633 292.623 36.39C293.036 35.8167 293.243 34.9767 293.243 33.87C293.243 32.7633 293.036 31.92 292.623 31.34C292.216 30.76 291.586 30.47 290.733 30.47C289.866 30.47 289.223 30.7633 288.803 31.35C288.389 31.93 288.183 32.77 288.183 33.87C288.183 34.97 288.389 35.81 288.803 36.39C289.223 36.9633 289.866 37.25 290.733 37.25ZM302.217 28.58C302.977 28.58 303.667 28.7033 304.287 28.95C304.914 29.1967 305.447 29.5467 305.887 30C306.334 30.4533 306.677 31.0067 306.917 31.66C307.157 32.3133 307.277 33.0433 307.277 33.85C307.277 34.6633 307.157 35.3967 306.917 36.05C306.677 36.7033 306.334 37.26 305.887 37.72C305.447 38.18 304.914 38.5333 304.287 38.78C303.667 39.0267 302.977 39.15 302.217 39.15C301.45 39.15 300.754 39.0267 300.127 38.78C299.5 38.5333 298.964 38.18 298.517 37.72C298.077 37.26 297.734 36.7033 297.487 36.05C297.247 35.3967 297.127 34.6633 297.127 33.85C297.127 33.0433 297.247 32.3133 297.487 31.66C297.734 31.0067 298.077 30.4533 298.517 30C298.964 29.5467 299.5 29.1967 300.127 28.95C300.754 28.7033 301.45 28.58 302.217 28.58ZM302.217 37.25C303.07 37.25 303.7 36.9633 304.107 36.39C304.52 35.8167 304.727 34.9767 304.727 33.87C304.727 32.7633 304.52 31.92 304.107 31.34C303.7 30.76 303.07 30.47 302.217 30.47C301.35 30.47 300.707 30.7633 300.287 31.35C299.874 31.93 299.667 32.77 299.667 33.87C299.667 34.97 299.874 35.81 300.287 36.39C300.707 36.9633 301.35 37.25 302.217 37.25ZM311.631 24.14V32.65H312.091C312.258 32.65 312.388 32.63 312.481 32.59C312.581 32.5433 312.681 32.4533 312.781 32.32L315.331 29.17C315.438 29.03 315.555 28.9233 315.681 28.85C315.815 28.7767 315.985 28.74 316.191 28.74H318.451L315.261 32.55C315.035 32.85 314.788 33.08 314.521 33.24C314.661 33.34 314.785 33.4567 314.891 33.59C315.005 33.7233 315.111 33.8667 315.211 34.02L318.631 39H316.401C316.208 39 316.041 38.97 315.901 38.91C315.761 38.8433 315.645 38.7267 315.551 38.56L312.931 34.67C312.838 34.5167 312.741 34.4167 312.641 34.37C312.541 34.3233 312.391 34.3 312.191 34.3H311.631V39H309.161V24.14H311.631Z" fill="white"/>
<g clip-path="url(#clip0)">
<path d="M37.33 21.3133H40.2513V16.2253C39.7473 16.156 38.014 16 35.9953 16C31.7833 16 28.898 18.6493 28.898 23.5187V28H24.25V33.688H28.898V48H34.5967V33.6893H39.0567L39.7647 28.0013H34.5953V24.0827C34.5967 22.4387 35.0393 21.3133 37.33 21.3133Z" fill="white"/>
</g>
<defs>
<clipPath id="clip0">
<rect width="32" height="32" fill="white" transform="translate(16 16)"/>
</clipPath>
</defs>
</svg>
