<svg width="23" height="32" viewBox="0 0 23 32" fill="none" xmlns="http://www.w3.org/2000/svg">
<path fill-rule="evenodd" clip-rule="evenodd" d="M0 16.0259C0 28.8077 0.025324 32.0411 0.125119 31.9996C0.193984 31.9709 2.71637 30.8878 5.73043 29.5926L11.2106 27.2378L16.6908 29.5926C19.705 30.8878 22.2274 31.9709 22.2961 31.9996C22.3959 32.0411 22.4212 28.8077 22.4212 16.0259V4C22.4212 1.79086 20.6304 0 18.4212 0H11.2106H4C1.79086 0 0 1.79086 0 4V16.0259ZM9.84502 8.81155C10.1441 8.92345 10.5713 9.14726 10.7944 9.30882L11.2 9.6027L11.7021 9.26488C12.4544 8.7585 13.0882 8.58123 13.9972 8.62287C15.3636 8.68543 16.5145 9.44415 17.131 10.6885C17.331 11.0923 17.3649 11.3125 17.3656 12.2116C17.3668 13.8081 17.3538 13.8273 14.0051 17.1745L11.2106 19.9676L8.41617 17.1745C5.20523 13.965 5.09513 13.812 5.02406 12.4574C4.97191 11.4646 5.15338 10.7854 5.65526 10.0943C6.59555 8.79963 8.36512 8.25792 9.84502 8.81155Z" fill="#532EB3"/>
</svg>
