<svg width="85" height="85" viewBox="0 0 85 85" fill="none" xmlns="http://www.w3.org/2000/svg">
<path fill-rule="evenodd" clip-rule="evenodd" d="M20.161 0.269818C18.5215 0.735872 17.3461 1.60117 16.8062 2.73917C16.5504 3.27776 16.023 3.80708 15.5441 4.00534C14.4718 4.44958 13.2378 5.87201 12.784 7.18727C12.372 8.38199 12.2951 12.1382 12.6365 14.3987C12.8514 15.82 12.8274 15.9384 12.2956 16.0775C11.8121 16.204 11.7238 16.4355 11.7238 17.5757C11.7238 19.144 12.4743 20.4683 13.8473 21.3232C14.4388 21.6914 15.1443 22.6579 16.0189 24.2974C17.4754 27.028 19.9505 29.782 21.6775 30.5936C22.2775 30.8756 23.4782 31.1597 24.3457 31.2252C26.2841 31.3711 27.8442 30.8268 29.7062 29.355C31.1251 28.2336 33.5146 24.8496 34.2531 22.9164C34.5271 22.1984 34.9231 21.6797 35.2787 21.5722C36.1293 21.3151 37.1034 20.3554 37.5296 19.3548C38.1318 17.9417 37.9671 16.0055 37.2449 16.0055C37.0052 16.0055 36.9215 15.0006 36.9332 12.2539C36.9488 8.54998 36.9376 8.4788 36.0527 6.67758C34.688 3.8998 32.3649 2.08631 28.3648 0.676423C26.4341 -0.00425062 21.912 -0.228415 20.161 0.269818ZM15.5523 34.2997C14.7333 34.5904 13.9627 34.9285 13.84 35.0512C13.5563 35.3349 13.4844 39.0472 13.7404 40.1756C13.91 40.9223 14.0778 41.0521 15.0789 41.2122C16.6115 41.4574 18.371 42.525 19.038 43.6145C19.6197 44.5646 21.8496 50.3285 22.3358 52.139C22.8583 54.0834 22.7146 55.6806 21.9339 56.6083C21.1267 57.5677 19.4547 58.042 19.0574 57.4246C18.6666 56.8172 18.8937 56.3048 19.7686 55.8221C20.9448 55.1731 20.9816 53.8417 19.9047 50.8998C19.4405 49.6314 18.8054 47.8575 18.4931 46.9576C17.2717 43.435 14.4495 42.0922 11.9618 43.8501C10.6668 44.765 10.2779 46.0394 10.4827 48.6969C11.0472 56.0171 11.6452 57.8884 13.2272 57.2814C13.7644 57.0752 14.4508 57.655 14.4508 58.3149C14.4508 59.5075 11.7677 59.619 10.6897 58.4715C9.65447 57.3695 9.28959 55.9399 8.8279 51.1755C8.40357 46.7964 8.40357 46.3838 8.82681 45.0415C9.24569 43.7124 10.7281 41.9289 11.6815 41.6073C11.9073 41.531 11.9119 41.0336 11.6984 39.7309C11.5386 38.7559 11.4832 37.3755 11.5751 36.6629C11.6673 35.9503 11.6984 35.3676 11.6447 35.3676C11.5907 35.3676 10.6943 35.6575 9.65284 36.0117C6.01058 37.2506 4.18372 38.4849 3.23225 40.3502C1.893 42.975 0.485836 51.0171 0.106229 58.2135C-0.0805741 61.754 -0.0710293 61.8484 0.549103 62.5086L1.18342 63.1835H21.1847H41.1863L40.9796 62.4336C40.6047 61.072 40.7874 56.319 41.2856 54.4807C42.1654 51.233 44.3219 47.6652 46.7844 45.3819L47.7318 44.5032L47.0724 42.3837C46.2701 39.8059 45.4032 38.6152 43.545 37.5408C42.0053 36.6504 37.7148 35.1928 37.4407 35.4668C37.3472 35.5604 37.4135 36.1129 37.5877 36.6946C37.762 37.2762 38.0448 39.0824 38.2163 40.7082C38.5817 44.1721 38.2561 47.452 37.1778 51.173C36.6548 52.9778 36.5711 53.6263 36.7963 54.121C37.6553 56.0059 36.6832 57.925 34.7374 58.1859C33.766 58.3163 33.4958 58.2274 32.6989 57.5154C31.9422 56.8393 31.7799 56.4995 31.7799 55.5911C31.7799 54.2974 32.6395 53.2012 33.9122 52.8712C34.5781 52.6988 34.8067 52.4155 35.1901 51.2879C36.7156 46.7994 36.7541 39.3218 35.2703 35.6136C34.9327 34.7695 34.637 34.5099 33.6201 34.1633C32.1666 33.6681 32.0079 33.7286 31.7567 34.8721C31.2285 37.2768 27.7439 44.5248 27.2598 44.2256C27.1592 44.1634 26.9208 43.0238 26.7302 41.693C26.451 39.7453 26.4504 39.1486 26.7272 38.631C27.0433 38.0406 26.9852 37.9157 26.0105 37.0911C25.4272 36.5978 24.8783 36.192 24.791 36.1898C24.7035 36.1876 24.1722 36.5847 23.6107 37.072C22.6563 37.9002 22.6096 38.0109 22.8982 38.7644C23.2718 39.7407 22.7105 44.4356 22.2382 44.2856C21.7705 44.1367 18.6748 37.8132 18.0293 35.6885C17.7023 34.6122 17.3464 33.7403 17.2381 33.7513C17.1302 33.7622 16.3715 34.009 15.5523 34.2997ZM55.1723 43.8015C50.655 45.026 47.2723 47.7072 45.1389 51.755C43.8709 54.1605 43.3576 56.2751 43.3576 59.093C43.3576 63.6534 44.7986 67.1465 47.9811 70.2992C51.1889 73.4776 54.6416 74.9164 59.0273 74.9034C61.6128 74.8954 63.0712 74.6088 65.3483 73.6617L67.0225 72.9652L67.7424 73.6852C68.2941 74.2369 68.6827 74.386 69.4067 74.3236C70.3042 74.2461 70.6225 74.512 75.7551 79.6212C80.8615 84.7044 81.2149 85 82.1865 85C83.6834 85 84.8089 83.8181 84.8089 82.2462C84.8089 81.1028 84.7353 81.0133 79.4554 75.7485C74.3337 70.6415 74.1041 70.3672 74.1565 69.416C74.1984 68.648 74.046 68.269 73.4856 67.7495L72.7602 67.0767L73.3318 65.9567C74.6681 63.3371 75.2053 58.4044 74.4652 55.5478C73.34 51.2055 70.6328 47.5608 66.9467 45.4252C63.6398 43.5097 58.7418 42.8343 55.1723 43.8015ZM61.5984 47.656C67.6082 49.0413 71.6394 55.0076 70.6257 61.0172C69.4201 68.1642 62.1342 72.557 55.3024 70.2556C50.1483 68.5193 47.247 64.1173 47.4965 58.4123C47.5911 56.2481 47.731 55.6479 48.5096 54.0665C50.9418 49.1258 56.3935 46.4558 61.5984 47.656Z" fill="white"/>
</svg>
