<svg width="54" height="80" viewBox="0 0 54 80" fill="none" xmlns="http://www.w3.org/2000/svg">
<path fill-rule="evenodd" clip-rule="evenodd" d="M21.9538 0.295825C8.79746 2.80499 -0.735181 14.6522 0.0454134 27.5237C0.538491 35.6527 7.84281 48.3742 21.2445 64.4452C24.546 68.4043 25.2038 69.0631 26.0034 69.2132C27.5515 69.5036 28.0947 69.1739 30.3124 66.5983C44.3439 50.3019 52.8637 35.7774 53.2962 27.4156C53.9288 15.1821 45.554 4.05143 33.2084 0.717891C30.4659 -0.0223919 24.7476 -0.237029 21.9538 0.295825ZM28.4298 16.8439L29.3375 17.7516V20.8484V23.9451H32.4342H35.531L36.4386 24.8528C37.0927 25.5068 37.3463 25.9991 37.3463 26.6147C37.3463 27.2303 37.0927 27.7226 36.4386 28.3767L35.531 29.2843H32.4342H29.3375V32.3811V35.4778L28.4298 36.3855C27.7757 37.0395 27.2835 37.2932 26.6678 37.2932C26.0522 37.2932 25.56 37.0395 24.9059 36.3855L23.9982 35.4778V32.3811V29.2843H20.9015H17.8047L16.8971 28.3767C16.243 27.7226 15.9894 27.2303 15.9894 26.6147C15.9894 25.9991 16.243 25.5068 16.8971 24.8528L17.8047 23.9451H20.9015H23.9982V20.8484V17.7516L24.9059 16.8439C25.56 16.1899 26.0522 15.9363 26.6678 15.9363C27.2835 15.9363 27.7757 16.1899 28.4298 16.8439ZM6.52056 57.6561C4.42705 58.7867 1.87383 61.1971 0.891946 62.9697C0.19411 64.2293 0.105212 64.646 0.105212 66.6589C0.105212 68.676 0.19331 69.0872 0.898354 70.36C4.14353 76.2193 14.2792 79.9914 26.8013 80C37.5903 80.0077 46.6929 77.1045 51.0398 72.2699C55.4577 67.3559 53.3776 60.9787 46.1622 57.3155L44.967 56.7087L44.4269 57.4466C40.328 63.0466 32.5896 72.2522 31.2177 73.1602C29.9122 74.0241 27.9695 74.6677 26.6678 74.6677C25.4243 74.6677 23.4731 74.0443 22.204 73.2416C21.1185 72.555 14.8778 65.28 11.1182 60.3185C9.64374 58.3729 8.36472 56.7845 8.27583 56.7885C8.18693 56.7923 7.39699 57.1828 6.52056 57.6561Z" fill="white"/>
</svg>
