<svg width="420" height="64" viewBox="0 0 420 64" fill="none" xmlns="http://www.w3.org/2000/svg">
<rect x="0.5" y="0.5" width="419" height="63" rx="4.5" fill="white" stroke="#CECECE"/>
<path d="M124.313 35.59C124.46 35.59 124.59 35.6467 124.703 35.76L125.763 36.91C125.177 37.6367 124.453 38.1933 123.593 38.58C122.74 38.9667 121.713 39.16 120.513 39.16C119.44 39.16 118.473 38.9767 117.613 38.61C116.76 38.2433 116.03 37.7333 115.423 37.08C114.817 36.4267 114.35 35.6467 114.023 34.74C113.703 33.8333 113.543 32.8433 113.543 31.77C113.543 30.6833 113.717 29.69 114.063 28.79C114.41 27.8833 114.897 27.1033 115.523 26.45C116.157 25.7967 116.91 25.29 117.783 24.93C118.657 24.5633 119.623 24.38 120.683 24.38C121.737 24.38 122.67 24.5533 123.483 24.9C124.303 25.2467 125 25.7 125.573 26.26L124.673 27.51C124.62 27.59 124.55 27.66 124.463 27.72C124.383 27.78 124.27 27.81 124.123 27.81C124.023 27.81 123.92 27.7833 123.813 27.73C123.707 27.67 123.59 27.6 123.463 27.52C123.337 27.4333 123.19 27.34 123.023 27.24C122.857 27.14 122.663 27.05 122.443 26.97C122.223 26.8833 121.967 26.8133 121.673 26.76C121.387 26.7 121.053 26.67 120.673 26.67C120.027 26.67 119.433 26.7867 118.893 27.02C118.36 27.2467 117.9 27.58 117.513 28.02C117.127 28.4533 116.827 28.9867 116.613 29.62C116.4 30.2467 116.293 30.9633 116.293 31.77C116.293 32.5833 116.407 33.3067 116.633 33.94C116.867 34.5733 117.18 35.1067 117.573 35.54C117.967 35.9733 118.43 36.3067 118.963 36.54C119.497 36.7667 120.07 36.88 120.683 36.88C121.05 36.88 121.38 36.86 121.673 36.82C121.973 36.78 122.247 36.7167 122.493 36.63C122.747 36.5433 122.983 36.4333 123.203 36.3C123.43 36.16 123.653 35.99 123.873 35.79C123.94 35.73 124.01 35.6833 124.083 35.65C124.157 35.61 124.233 35.59 124.313 35.59ZM131.541 28.58C132.301 28.58 132.991 28.7033 133.611 28.95C134.238 29.1967 134.771 29.5467 135.211 30C135.658 30.4533 136.001 31.0067 136.241 31.66C136.481 32.3133 136.601 33.0433 136.601 33.85C136.601 34.6633 136.481 35.3967 136.241 36.05C136.001 36.7033 135.658 37.26 135.211 37.72C134.771 38.18 134.238 38.5333 133.611 38.78C132.991 39.0267 132.301 39.15 131.541 39.15C130.775 39.15 130.078 39.0267 129.451 38.78C128.825 38.5333 128.288 38.18 127.841 37.72C127.401 37.26 127.058 36.7033 126.811 36.05C126.571 35.3967 126.451 34.6633 126.451 33.85C126.451 33.0433 126.571 32.3133 126.811 31.66C127.058 31.0067 127.401 30.4533 127.841 30C128.288 29.5467 128.825 29.1967 129.451 28.95C130.078 28.7033 130.775 28.58 131.541 28.58ZM131.541 37.25C132.395 37.25 133.025 36.9633 133.431 36.39C133.845 35.8167 134.051 34.9767 134.051 33.87C134.051 32.7633 133.845 31.92 133.431 31.34C133.025 30.76 132.395 30.47 131.541 30.47C130.675 30.47 130.031 30.7633 129.611 31.35C129.198 31.93 128.991 32.77 128.991 33.87C128.991 34.97 129.198 35.81 129.611 36.39C130.031 36.9633 130.675 37.25 131.541 37.25ZM140.796 30C141.002 29.7933 141.219 29.6033 141.446 29.43C141.679 29.25 141.922 29.1 142.176 28.98C142.436 28.8533 142.712 28.7567 143.006 28.69C143.299 28.6167 143.619 28.58 143.966 28.58C144.526 28.58 145.022 28.6767 145.456 28.87C145.889 29.0567 146.249 29.3233 146.536 29.67C146.829 30.01 147.049 30.42 147.196 30.9C147.349 31.3733 147.426 31.8967 147.426 32.47V39H144.956V32.47C144.956 31.8433 144.812 31.36 144.526 31.02C144.239 30.6733 143.802 30.5 143.216 30.5C142.789 30.5 142.389 30.5967 142.016 30.79C141.642 30.9833 141.289 31.2467 140.956 31.58V39H138.486V28.74H139.996C140.316 28.74 140.526 28.89 140.626 29.19L140.796 30ZM159.988 39H157.518V30.59H152.758V36.15C152.758 36.47 152.835 36.72 152.988 36.9C153.148 37.08 153.365 37.17 153.638 37.17C153.791 37.17 153.918 37.1533 154.018 37.12C154.125 37.08 154.215 37.04 154.288 37C154.368 36.96 154.438 36.9233 154.498 36.89C154.558 36.85 154.618 36.83 154.678 36.83C154.751 36.83 154.811 36.85 154.858 36.89C154.905 36.9233 154.955 36.9767 155.008 37.05L155.748 38.25C155.388 38.55 154.975 38.7767 154.508 38.93C154.041 39.0833 153.558 39.16 153.058 39.16C152.165 39.16 151.478 38.91 150.998 38.41C150.525 37.9033 150.288 37.2067 150.288 36.32V30.59H149.238C149.105 30.59 148.991 30.5467 148.898 30.46C148.805 30.3733 148.758 30.2433 148.758 30.07V29.09L150.408 28.81L150.928 26.02C150.961 25.8867 151.025 25.7833 151.118 25.71C151.211 25.6367 151.331 25.6 151.478 25.6H152.758V28.83H159.988V39ZM160.418 25.71C160.418 25.9233 160.375 26.1267 160.288 26.32C160.201 26.5067 160.085 26.67 159.938 26.81C159.798 26.95 159.628 27.0633 159.428 27.15C159.235 27.23 159.028 27.27 158.808 27.27C158.595 27.27 158.395 27.23 158.208 27.15C158.021 27.0633 157.858 26.95 157.718 26.81C157.578 26.67 157.465 26.5067 157.378 26.32C157.298 26.1267 157.258 25.9233 157.258 25.71C157.258 25.49 157.298 25.2867 157.378 25.1C157.465 24.9067 157.578 24.74 157.718 24.6C157.858 24.4533 158.021 24.34 158.208 24.26C158.395 24.1733 158.595 24.13 158.808 24.13C159.028 24.13 159.235 24.1733 159.428 24.26C159.628 24.34 159.798 24.4533 159.938 24.6C160.085 24.74 160.201 24.9067 160.288 25.1C160.375 25.2867 160.418 25.49 160.418 25.71ZM164.819 30C165.026 29.7933 165.242 29.6033 165.469 29.43C165.702 29.25 165.946 29.1 166.199 28.98C166.459 28.8533 166.736 28.7567 167.029 28.69C167.322 28.6167 167.642 28.58 167.989 28.58C168.549 28.58 169.046 28.6767 169.479 28.87C169.912 29.0567 170.272 29.3233 170.559 29.67C170.852 30.01 171.072 30.42 171.219 30.9C171.372 31.3733 171.449 31.8967 171.449 32.47V39H168.979V32.47C168.979 31.8433 168.836 31.36 168.549 31.02C168.262 30.6733 167.826 30.5 167.239 30.5C166.812 30.5 166.412 30.5967 166.039 30.79C165.666 30.9833 165.312 31.2467 164.979 31.58V39H162.509V28.74H164.019C164.339 28.74 164.549 28.89 164.649 29.19L164.819 30ZM182.638 28.74V39H181.128C180.801 39 180.595 38.85 180.508 38.55L180.338 37.73C179.918 38.1567 179.455 38.5033 178.948 38.77C178.441 39.03 177.845 39.16 177.158 39.16C176.598 39.16 176.101 39.0667 175.668 38.88C175.241 38.6867 174.881 38.4167 174.588 38.07C174.295 37.7233 174.071 37.3133 173.918 36.84C173.771 36.36 173.698 35.8333 173.698 35.26V28.74H176.168V35.26C176.168 35.8867 176.311 36.3733 176.598 36.72C176.891 37.06 177.328 37.23 177.908 37.23C178.335 37.23 178.735 37.1367 179.108 36.95C179.481 36.7567 179.835 36.4933 180.168 36.16V28.74H182.638ZM191.697 32.69C191.697 32.37 191.651 32.07 191.557 31.79C191.471 31.5033 191.337 31.2533 191.157 31.04C190.977 30.8267 190.747 30.66 190.467 30.54C190.194 30.4133 189.874 30.35 189.507 30.35C188.794 30.35 188.231 30.5533 187.817 30.96C187.411 31.3667 187.151 31.9433 187.037 32.69H191.697ZM186.987 34.18C187.027 34.7067 187.121 35.1633 187.267 35.55C187.414 35.93 187.607 36.2467 187.847 36.5C188.087 36.7467 188.371 36.9333 188.697 37.06C189.031 37.18 189.397 37.24 189.797 37.24C190.197 37.24 190.541 37.1933 190.827 37.1C191.121 37.0067 191.374 36.9033 191.587 36.79C191.807 36.6767 191.997 36.5733 192.157 36.48C192.324 36.3867 192.484 36.34 192.637 36.34C192.844 36.34 192.997 36.4167 193.097 36.57L193.807 37.47C193.534 37.79 193.227 38.06 192.887 38.28C192.547 38.4933 192.191 38.6667 191.817 38.8C191.451 38.9267 191.074 39.0167 190.687 39.07C190.307 39.1233 189.937 39.15 189.577 39.15C188.864 39.15 188.201 39.0333 187.587 38.8C186.974 38.56 186.441 38.21 185.987 37.75C185.534 37.2833 185.177 36.71 184.917 36.03C184.657 35.3433 184.527 34.55 184.527 33.65C184.527 32.95 184.641 32.2933 184.867 31.68C185.094 31.06 185.417 30.5233 185.837 30.07C186.264 29.61 186.781 29.2467 187.387 28.98C188.001 28.7133 188.691 28.58 189.457 28.58C190.104 28.58 190.701 28.6833 191.247 28.89C191.794 29.0967 192.264 29.4 192.657 29.8C193.051 30.1933 193.357 30.68 193.577 31.26C193.804 31.8333 193.917 32.49 193.917 33.23C193.917 33.6033 193.877 33.8567 193.797 33.99C193.717 34.1167 193.564 34.18 193.337 34.18H186.987ZM214.874 28.74L211.614 39H209.634C209.407 39 209.251 38.8533 209.164 38.56L207.324 32.63C207.264 32.43 207.207 32.2333 207.154 32.04C207.107 31.84 207.067 31.64 207.034 31.44C206.994 31.64 206.947 31.8433 206.894 32.05C206.847 32.25 206.794 32.45 206.734 32.65L204.864 38.56C204.784 38.8533 204.607 39 204.334 39H202.434L199.184 28.74H201.154C201.334 28.74 201.487 28.7833 201.614 28.87C201.741 28.9567 201.824 29.0667 201.864 29.2L203.334 34.68C203.407 34.98 203.471 35.2733 203.524 35.56C203.584 35.8467 203.634 36.1333 203.674 36.42C203.747 36.1333 203.824 35.8467 203.904 35.56C203.991 35.2733 204.081 34.98 204.174 34.68L205.874 29.18C205.914 29.0467 205.991 28.9367 206.104 28.85C206.224 28.7633 206.367 28.72 206.534 28.72H207.624C207.797 28.72 207.944 28.7633 208.064 28.85C208.191 28.9367 208.274 29.0467 208.314 29.18L209.964 34.68C210.051 34.98 210.131 35.2767 210.204 35.57C210.284 35.8567 210.361 36.1433 210.434 36.43C210.521 35.8633 210.644 35.28 210.804 34.68L212.314 29.2C212.361 29.0667 212.444 28.9567 212.564 28.87C212.684 28.7833 212.827 28.74 212.994 28.74H214.874ZM218.839 28.74V39H216.359V28.74H218.839ZM219.179 25.75C219.179 25.9633 219.135 26.1633 219.049 26.35C218.962 26.5367 218.845 26.7 218.699 26.84C218.559 26.98 218.392 27.0933 218.199 27.18C218.005 27.26 217.799 27.3 217.579 27.3C217.365 27.3 217.162 27.26 216.969 27.18C216.782 27.0933 216.619 26.98 216.479 26.84C216.339 26.7 216.225 26.5367 216.139 26.35C216.059 26.1633 216.019 25.9633 216.019 25.75C216.019 25.53 216.059 25.3233 216.139 25.13C216.225 24.9367 216.339 24.77 216.479 24.63C216.619 24.49 216.782 24.38 216.969 24.3C217.162 24.2133 217.365 24.17 217.579 24.17C217.799 24.17 218.005 24.2133 218.199 24.3C218.392 24.38 218.559 24.49 218.699 24.63C218.845 24.77 218.962 24.9367 219.049 25.13C219.135 25.3233 219.179 25.53 219.179 25.75ZM224.777 39.16C223.883 39.16 223.197 38.91 222.717 38.41C222.243 37.9033 222.007 37.2067 222.007 36.32V30.59H220.957C220.823 30.59 220.71 30.5467 220.617 30.46C220.523 30.3733 220.477 30.2433 220.477 30.07V29.09L222.127 28.82L222.647 26.02C222.68 25.8867 222.743 25.7833 222.837 25.71C222.93 25.6367 223.05 25.6 223.197 25.6H224.477V28.83H227.217V30.59H224.477V36.15C224.477 36.47 224.553 36.72 224.707 36.9C224.867 37.08 225.083 37.17 225.357 37.17C225.51 37.17 225.637 37.1533 225.737 37.12C225.843 37.08 225.933 37.04 226.007 37C226.087 36.96 226.157 36.9233 226.217 36.89C226.277 36.85 226.337 36.83 226.397 36.83C226.47 36.83 226.53 36.85 226.577 36.89C226.623 36.9233 226.673 36.9767 226.727 37.05L227.467 38.25C227.107 38.55 226.693 38.7767 226.227 38.93C225.76 39.0833 225.277 39.16 224.777 39.16ZM231.268 29.84C231.668 29.4667 232.108 29.1633 232.588 28.93C233.068 28.6967 233.631 28.58 234.278 28.58C234.838 28.58 235.335 28.6767 235.768 28.87C236.201 29.0567 236.561 29.3233 236.848 29.67C237.141 30.01 237.361 30.42 237.508 30.9C237.661 31.3733 237.738 31.8967 237.738 32.47V39H235.268V32.47C235.268 31.8433 235.125 31.36 234.838 31.02C234.551 30.6733 234.115 30.5 233.528 30.5C233.101 30.5 232.701 30.5967 232.328 30.79C231.955 30.9833 231.601 31.2467 231.268 31.58V39H228.798V24.14H231.268V29.84ZM257.26 31.75V37.6C256.527 38.14 255.744 38.5367 254.91 38.79C254.084 39.0367 253.197 39.16 252.25 39.16C251.07 39.16 250 38.9767 249.04 38.61C248.087 38.2433 247.27 37.7333 246.59 37.08C245.917 36.4267 245.397 35.6467 245.03 34.74C244.664 33.8333 244.48 32.8433 244.48 31.77C244.48 30.6833 244.657 29.6867 245.01 28.78C245.364 27.8733 245.864 27.0933 246.51 26.44C247.164 25.7867 247.954 25.28 248.88 24.92C249.807 24.56 250.847 24.38 252 24.38C252.587 24.38 253.134 24.4267 253.64 24.52C254.154 24.6133 254.627 24.7433 255.06 24.91C255.5 25.07 255.9 25.2667 256.26 25.5C256.62 25.7333 256.95 25.99 257.25 26.27L256.48 27.49C256.36 27.6833 256.204 27.8033 256.01 27.85C255.817 27.89 255.607 27.84 255.38 27.7C255.16 27.5733 254.94 27.4467 254.72 27.32C254.5 27.1933 254.254 27.0833 253.98 26.99C253.714 26.8967 253.41 26.82 253.07 26.76C252.737 26.7 252.35 26.67 251.91 26.67C251.197 26.67 250.55 26.79 249.97 27.03C249.397 27.27 248.907 27.6133 248.5 28.06C248.094 28.5067 247.78 29.0433 247.56 29.67C247.34 30.2967 247.23 30.9967 247.23 31.77C247.23 32.5967 247.347 33.3367 247.58 33.99C247.82 34.6367 248.154 35.1867 248.58 35.64C249.014 36.0867 249.534 36.43 250.14 36.67C250.747 36.9033 251.424 37.02 252.17 37.02C252.704 37.02 253.18 36.9633 253.6 36.85C254.02 36.7367 254.43 36.5833 254.83 36.39V33.77H253.01C252.837 33.77 252.7 33.7233 252.6 33.63C252.507 33.53 252.46 33.41 252.46 33.27V31.75H257.26ZM263.885 28.58C264.645 28.58 265.335 28.7033 265.955 28.95C266.582 29.1967 267.115 29.5467 267.555 30C268.002 30.4533 268.345 31.0067 268.585 31.66C268.825 32.3133 268.945 33.0433 268.945 33.85C268.945 34.6633 268.825 35.3967 268.585 36.05C268.345 36.7033 268.002 37.26 267.555 37.72C267.115 38.18 266.582 38.5333 265.955 38.78C265.335 39.0267 264.645 39.15 263.885 39.15C263.118 39.15 262.422 39.0267 261.795 38.78C261.168 38.5333 260.632 38.18 260.185 37.72C259.745 37.26 259.402 36.7033 259.155 36.05C258.915 35.3967 258.795 34.6633 258.795 33.85C258.795 33.0433 258.915 32.3133 259.155 31.66C259.402 31.0067 259.745 30.4533 260.185 30C260.632 29.5467 261.168 29.1967 261.795 28.95C262.422 28.7033 263.118 28.58 263.885 28.58ZM263.885 37.25C264.738 37.25 265.368 36.9633 265.775 36.39C266.188 35.8167 266.395 34.9767 266.395 33.87C266.395 32.7633 266.188 31.92 265.775 31.34C265.368 30.76 264.738 30.47 263.885 30.47C263.018 30.47 262.375 30.7633 261.955 31.35C261.542 31.93 261.335 32.77 261.335 33.87C261.335 34.97 261.542 35.81 261.955 36.39C262.375 36.9633 263.018 37.25 263.885 37.25ZM275.369 28.58C276.129 28.58 276.819 28.7033 277.439 28.95C278.066 29.1967 278.599 29.5467 279.039 30C279.486 30.4533 279.829 31.0067 280.069 31.66C280.309 32.3133 280.429 33.0433 280.429 33.85C280.429 34.6633 280.309 35.3967 280.069 36.05C279.829 36.7033 279.486 37.26 279.039 37.72C278.599 38.18 278.066 38.5333 277.439 38.78C276.819 39.0267 276.129 39.15 275.369 39.15C274.603 39.15 273.906 39.0267 273.279 38.78C272.653 38.5333 272.116 38.18 271.669 37.72C271.229 37.26 270.886 36.7033 270.639 36.05C270.399 35.3967 270.279 34.6633 270.279 33.85C270.279 33.0433 270.399 32.3133 270.639 31.66C270.886 31.0067 271.229 30.4533 271.669 30C272.116 29.5467 272.653 29.1967 273.279 28.95C273.906 28.7033 274.603 28.58 275.369 28.58ZM275.369 37.25C276.223 37.25 276.853 36.9633 277.259 36.39C277.673 35.8167 277.879 34.9767 277.879 33.87C277.879 32.7633 277.673 31.92 277.259 31.34C276.853 30.76 276.223 30.47 275.369 30.47C274.503 30.47 273.859 30.7633 273.439 31.35C273.026 31.93 272.819 32.77 272.819 33.87C272.819 34.97 273.026 35.81 273.439 36.39C273.859 36.9633 274.503 37.25 275.369 37.25ZM285.986 33.62C286.292 33.62 286.559 33.58 286.786 33.5C287.012 33.4133 287.199 33.2967 287.346 33.15C287.499 33.0033 287.612 32.8267 287.686 32.62C287.766 32.4133 287.806 32.1867 287.806 31.94C287.806 31.4333 287.652 31.0333 287.346 30.74C287.046 30.44 286.592 30.29 285.986 30.29C285.379 30.29 284.922 30.44 284.616 30.74C284.316 31.0333 284.166 31.4333 284.166 31.94C284.166 32.18 284.202 32.4033 284.276 32.61C284.356 32.8167 284.469 32.9967 284.616 33.15C284.769 33.2967 284.959 33.4133 285.186 33.5C285.419 33.58 285.686 33.62 285.986 33.62ZM288.776 39.46C288.776 39.26 288.716 39.0967 288.596 38.97C288.476 38.8433 288.312 38.7467 288.106 38.68C287.899 38.6067 287.656 38.5533 287.376 38.52C287.102 38.4867 286.809 38.4633 286.496 38.45C286.189 38.43 285.869 38.4133 285.536 38.4C285.209 38.3867 284.889 38.36 284.576 38.32C284.302 38.4733 284.079 38.6533 283.906 38.86C283.739 39.0667 283.656 39.3067 283.656 39.58C283.656 39.76 283.699 39.9267 283.786 40.08C283.879 40.24 284.022 40.3767 284.216 40.49C284.416 40.6033 284.672 40.69 284.986 40.75C285.299 40.8167 285.682 40.85 286.136 40.85C286.596 40.85 286.992 40.8133 287.326 40.74C287.659 40.6733 287.932 40.5767 288.146 40.45C288.366 40.33 288.526 40.1833 288.626 40.01C288.726 39.8433 288.776 39.66 288.776 39.46ZM291.236 29.09V30.01C291.236 30.3033 291.059 30.4833 290.706 30.55L289.786 30.72C289.926 31.0733 289.996 31.46 289.996 31.88C289.996 32.3867 289.892 32.8467 289.686 33.26C289.486 33.6667 289.206 34.0133 288.846 34.3C288.486 34.5867 288.059 34.81 287.566 34.97C287.079 35.1233 286.552 35.2 285.986 35.2C285.786 35.2 285.592 35.19 285.406 35.17C285.219 35.15 285.036 35.1233 284.856 35.09C284.536 35.2833 284.376 35.5 284.376 35.74C284.376 35.9467 284.469 36.1 284.656 36.2C284.849 36.2933 285.102 36.36 285.416 36.4C285.729 36.44 286.086 36.4667 286.486 36.48C286.886 36.4867 287.296 36.5067 287.716 36.54C288.136 36.5733 288.546 36.6333 288.946 36.72C289.346 36.8 289.702 36.93 290.016 37.11C290.329 37.29 290.579 37.5367 290.766 37.85C290.959 38.1567 291.056 38.5533 291.056 39.04C291.056 39.4933 290.942 39.9333 290.716 40.36C290.496 40.7867 290.172 41.1667 289.746 41.5C289.326 41.8333 288.806 42.1 288.186 42.3C287.572 42.5067 286.872 42.61 286.086 42.61C285.312 42.61 284.639 42.5333 284.066 42.38C283.492 42.2333 283.016 42.0333 282.636 41.78C282.256 41.5333 281.972 41.2467 281.786 40.92C281.599 40.5933 281.506 40.2533 281.506 39.9C281.506 39.42 281.649 39.02 281.936 38.7C282.229 38.3733 282.629 38.1133 283.136 37.92C282.862 37.78 282.646 37.5933 282.486 37.36C282.326 37.1267 282.246 36.82 282.246 36.44C282.246 36.2867 282.272 36.13 282.326 35.97C282.386 35.8033 282.469 35.64 282.576 35.48C282.689 35.32 282.829 35.17 282.996 35.03C283.162 34.8833 283.359 34.7533 283.586 34.64C283.066 34.36 282.656 33.9867 282.356 33.52C282.062 33.0533 281.916 32.5067 281.916 31.88C281.916 31.3733 282.016 30.9167 282.216 30.51C282.422 30.0967 282.706 29.7467 283.066 29.46C283.432 29.1667 283.862 28.9433 284.356 28.79C284.856 28.6367 285.399 28.56 285.986 28.56C286.426 28.56 286.839 28.6067 287.226 28.7C287.612 28.7867 287.966 28.9167 288.286 29.09H291.236ZM295.302 24.14V39H292.832V24.14H295.302ZM304.373 32.69C304.373 32.37 304.326 32.07 304.233 31.79C304.146 31.5033 304.013 31.2533 303.833 31.04C303.653 30.8267 303.423 30.66 303.143 30.54C302.87 30.4133 302.55 30.35 302.183 30.35C301.47 30.35 300.906 30.5533 300.493 30.96C300.086 31.3667 299.826 31.9433 299.713 32.69H304.373ZM299.663 34.18C299.703 34.7067 299.796 35.1633 299.943 35.55C300.09 35.93 300.283 36.2467 300.523 36.5C300.763 36.7467 301.046 36.9333 301.373 37.06C301.706 37.18 302.073 37.24 302.473 37.24C302.873 37.24 303.216 37.1933 303.503 37.1C303.796 37.0067 304.05 36.9033 304.263 36.79C304.483 36.6767 304.673 36.5733 304.833 36.48C305 36.3867 305.16 36.34 305.313 36.34C305.52 36.34 305.673 36.4167 305.773 36.57L306.483 37.47C306.21 37.79 305.903 38.06 305.563 38.28C305.223 38.4933 304.866 38.6667 304.493 38.8C304.126 38.9267 303.75 39.0167 303.363 39.07C302.983 39.1233 302.613 39.15 302.253 39.15C301.54 39.15 300.876 39.0333 300.263 38.8C299.65 38.56 299.116 38.21 298.663 37.75C298.21 37.2833 297.853 36.71 297.593 36.03C297.333 35.3433 297.203 34.55 297.203 33.65C297.203 32.95 297.316 32.2933 297.543 31.68C297.77 31.06 298.093 30.5233 298.513 30.07C298.94 29.61 299.456 29.2467 300.063 28.98C300.676 28.7133 301.366 28.58 302.133 28.58C302.78 28.58 303.376 28.6833 303.923 28.89C304.47 29.0967 304.94 29.4 305.333 29.8C305.726 30.1933 306.033 30.68 306.253 31.26C306.48 31.8333 306.593 32.49 306.593 33.23C306.593 33.6033 306.553 33.8567 306.473 33.99C306.393 34.1167 306.24 34.18 306.013 34.18H299.663Z" fill="#25282B"/>
<g clip-path="url(#clip0)">
<path d="M23.0919 35.3379L21.978 39.4961L17.9068 39.5822C16.6901 37.3255 16 34.7436 16 31.9999C16 29.3467 16.6453 26.8447 17.789 24.6416H17.7899L21.4144 25.3061L23.0021 28.9089C22.6698 29.8777 22.4887 30.9177 22.4887 31.9999C22.4888 33.1744 22.7016 34.2997 23.0919 35.3379Z" fill="#FBBB00"/>
<path d="M47.7203 29.0107C47.904 29.9786 47.9998 30.9782 47.9998 31.9997C47.9998 33.1452 47.8794 34.2626 47.6499 35.3404C46.8711 39.0081 44.8359 42.2107 42.0166 44.4771L42.0157 44.4762L37.4504 44.2433L36.8043 40.2099C38.6751 39.1127 40.1371 37.3958 40.9072 35.3404H32.3516V29.0107H41.032H47.7203Z" fill="#518EF8"/>
<path d="M42.0152 44.4763L42.0161 44.4772C39.2742 46.6811 35.7911 47.9998 31.9994 47.9998C25.9062 47.9998 20.6087 44.5941 17.9062 39.5823L23.0913 35.3379C24.4425 38.944 27.9212 41.5111 31.9994 41.5111C33.7524 41.5111 35.3946 41.0372 36.8038 40.21L42.0152 44.4763Z" fill="#28B446"/>
<path d="M42.2128 19.6835L37.0295 23.927C35.5711 23.0154 33.8471 22.4887 32.0001 22.4887C27.8295 22.4887 24.2858 25.1736 23.0023 28.909L17.7899 24.6418H17.7891C20.4519 19.5077 25.8163 16 32.0001 16C35.8822 16 39.4418 17.3829 42.2128 19.6835Z" fill="#F14336"/>
</g>
<defs>
<clipPath id="clip0">
<rect width="32" height="32" fill="white" transform="translate(16 16)"/>
</clipPath>
</defs>
</svg>
