<svg width="19" height="24" viewBox="0 0 19 24" fill="none" xmlns="http://www.w3.org/2000/svg">
<path fill-rule="evenodd" clip-rule="evenodd" d="M8.13468 0.148379C7.06009 0.434274 6.31401 0.882391 5.5497 1.70078C4.62729 2.68851 4.17069 3.85392 4.17392 5.21282C4.17602 6.1269 4.31747 6.72232 4.73521 7.57528C5.15633 8.43521 6.13724 9.43112 6.9722 9.84647C8.51784 10.6154 10.2265 10.6154 11.7721 9.84647C12.6071 9.43112 13.588 8.43521 14.0091 7.57528C14.4285 6.71894 14.5688 6.1266 14.5688 5.21282C14.5688 4.29903 14.4285 3.70669 14.0091 2.85036C13.586 1.98637 12.6081 0.99759 11.7651 0.581422C10.6048 0.0085065 9.26213 -0.151616 8.13468 0.148379ZM8.05968 11.226C7.59626 11.2655 6.81605 11.3991 6.49265 11.4944C6.24103 11.5685 6.17631 11.6353 6.02549 11.9764C5.57564 12.9936 5.0382 14.7948 4.72733 16.327C4.51299 17.3835 4.51006 17.3661 4.93748 17.5827C6.11106 18.1774 6.39321 19.7173 5.51812 20.7525C5.4066 20.8844 5.1264 21.0848 4.89556 21.1977C3.63018 21.8169 2.13838 20.9902 1.97106 19.5772C1.87626 18.7766 2.38955 17.8989 3.16826 17.5302L3.56898 17.3405L3.66243 16.714C3.79772 15.8074 4.21614 14.1261 4.56414 13.0906C4.72996 12.5973 4.85131 12.1793 4.83391 12.1619C4.77196 12.1 3.75752 12.7527 3.17561 13.229C1.68291 14.4505 0.634203 16.1771 0.180986 18.1591C0.0813873 18.5948 0.0468133 19.2313 0.0186888 21.15C-0.0167106 23.5637 -0.0154361 23.5895 0.145586 23.7938L0.308183 24H9.37216H18.4361L18.5915 23.8024C18.7405 23.6131 18.747 23.5162 18.7465 21.4962C18.746 19.1214 18.6625 18.3291 18.2978 17.2405C17.9918 16.3272 17.7587 15.8521 17.2244 15.0533C16.433 13.8701 15.2389 12.8061 13.9957 12.176C13.713 12.0328 13.4655 11.9318 13.4457 11.9516C13.4258 11.9714 13.4614 12.252 13.5245 12.5751C13.7022 13.4837 13.7971 14.2031 13.7971 14.6415C13.7971 15.0377 13.8024 15.047 14.325 15.5647C15.5764 16.8043 16.3091 18.3452 16.1536 19.4102C16.0489 20.1272 15.5526 20.7901 14.8534 21.1468C14.3093 21.4244 13.8721 21.2835 13.8721 20.8308C13.8721 20.59 13.9949 20.4629 14.4317 20.2515C15.3559 19.804 15.4322 18.8377 14.6462 17.5362C14.2798 16.9296 13.2521 15.7501 13.0898 15.7501C12.9401 15.7501 11.6707 16.5756 11.223 16.9642C10.7329 17.3897 10.3107 18.0056 10.1953 18.4637C10.0675 18.9713 10.1904 19.3228 10.6465 19.7547C11.0585 20.1448 11.1334 20.4262 10.885 20.6509C10.6243 20.8868 10.3171 20.8091 9.8985 20.4014C9.05289 19.5777 8.93896 18.5098 9.5784 17.4001C10.0159 16.6408 11.3227 15.5324 12.4596 14.9564C12.7419 14.8133 12.8221 14.7326 12.8221 14.5919C12.8221 14.0644 12.4332 11.8904 12.2895 11.6143C12.1268 11.3019 9.74032 11.0827 8.05968 11.226Z" fill="white"/>
</svg>
