<svg width="82" height="80" viewBox="0 0 82 80" fill="none" xmlns="http://www.w3.org/2000/svg">
<path fill-rule="evenodd" clip-rule="evenodd" d="M38.4423 0.50176C37.6731 0.78592 34.97 2.8096 31.919 5.38528C27.1662 9.39744 9.5001 24.3347 4.11599 28.8934C1.56076 31.057 0.77892 32.1075 0.776375 33.3811C0.774147 34.6202 1.26196 35.4259 2.35947 35.9968C3.70136 36.6944 4.97516 36.593 6.31037 35.6819C6.95347 35.2432 14.5727 28.871 23.2417 21.5219C31.911 14.1728 39.4478 7.9696 39.99 7.73696C40.8075 7.38656 41.1544 7.38656 42.0158 7.73696C42.5873 7.9696 50.4426 14.424 59.4721 22.08C68.5013 29.736 76.3293 36.1862 76.8674 36.4141C79.6867 37.6074 82.4023 34.2282 80.7235 31.6163C80.418 31.1411 75.0132 26.4032 68.7126 21.0877C62.4121 15.7718 54.7088 9.24864 51.5942 6.59136C48.4796 3.93408 45.2828 1.41088 44.4902 0.98432C42.7238 0.0339201 40.2433 -0.16416 38.4423 0.50176ZM60.507 0.64352C59.8444 1.16768 59.6532 1.66624 59.476 3.33024C59.0495 7.33376 59.1549 7.52704 63.9796 11.5917C66.335 13.5763 68.4075 15.2506 68.5847 15.3126C68.7982 15.3872 68.8743 13.0758 68.81 8.48448L68.7126 1.54336L67.8197 0.77184C67.0223 0.0825596 66.6274 0 64.1237 0C61.7973 0 61.1822 0.10944 60.507 0.64352ZM39.2696 15.2714C38.539 15.7834 20.8828 30.6896 18.7565 32.5894C18.2327 33.0573 16.8008 34.2816 15.5744 35.3098C14.3477 36.3382 13.1773 37.5674 12.9734 38.041C12.7026 38.6701 12.6167 44.1898 12.6552 58.5174L12.7077 78.1322L13.7469 79.0662L14.7862 80H41.0284H67.2705L68.3098 79.0659L69.3491 78.1318V58.1293C69.3491 38.6061 69.3338 38.1072 68.7126 37.3274C68.1096 36.5699 44.4529 16.4464 42.7871 15.2739C41.7828 14.5667 40.2764 14.5658 39.2696 15.2714ZM45.6424 35.0333C55.4605 37.6454 61.5084 47.8045 59.0546 57.5622C57.2832 64.6074 51.7161 70.0768 44.8469 71.5206C38.7223 72.808 32.5729 70.9853 28.1132 66.56C21.8511 60.3469 20.6594 50.9232 25.1853 43.4128C27.4882 39.5917 31.9123 36.2515 36.2552 35.0554C38.3942 34.4662 43.4665 34.4544 45.6424 35.0333ZM37.6821 38.5418C30.7782 40.3091 26.2316 46.0954 26.2316 53.1149C26.2316 61.5446 32.7377 68.16 41.0284 68.16C49.319 68.16 55.8251 61.5446 55.8251 53.1149C55.8251 47.6749 53.141 42.9629 48.4796 40.2198C45.4139 38.4157 40.909 37.7158 37.6821 38.5418ZM44.7568 45.8032L44.8469 49.3664L48.029 49.3184C49.7791 49.2918 51.395 49.3923 51.6203 49.5411C51.9216 49.7408 52.0053 50.7296 51.9385 53.3059L51.8475 56.8L48.2676 56.8906L44.6878 56.9811V60.4906V64H41.0284H37.3689V60.4906V56.9811L33.7891 56.8906L30.2092 56.8L30.1182 53.3059C30.0514 50.7261 30.1344 49.7437 30.4364 49.5507C30.6617 49.4074 32.3135 49.2877 34.1073 49.2848L37.3689 49.28V45.76V42.24H41.0179H44.6668L44.7568 45.8032Z" fill="#7D58DB"/>
</svg>
