<svg width="17" height="17" viewBox="0 0 17 17" fill="none" xmlns="http://www.w3.org/2000/svg">
<circle cx="8.5" cy="8.5" r="8.5" fill="#7F54F0"/>
<path d="M8.99805 13H7.91406V6.66016H8.99805V13ZM7.82617 4.97852C7.82617 4.80273 7.87891 4.6543 7.98438 4.5332C8.09375 4.41211 8.25391 4.35156 8.46484 4.35156C8.67578 4.35156 8.83594 4.41211 8.94531 4.5332C9.05469 4.6543 9.10938 4.80273 9.10938 4.97852C9.10938 5.1543 9.05469 5.30078 8.94531 5.41797C8.83594 5.53516 8.67578 5.59375 8.46484 5.59375C8.25391 5.59375 8.09375 5.53516 7.98438 5.41797C7.87891 5.30078 7.82617 5.1543 7.82617 4.97852Z" fill="white"/>
</svg>
