<svg width="60" height="46" viewBox="0 0 60 46" fill="none" xmlns="http://www.w3.org/2000/svg">
<path fill-rule="evenodd" clip-rule="evenodd" d="M9.67495 1.23159C5.02819 2.45408 1.88941 5.45786 0.436675 10.0729C0.0282807 11.3706 0 11.7538 0 16.0072C0 20.2528 0.0288383 20.6464 0.435 21.9461C1.10146 24.0786 2.02355 25.5748 3.70476 27.2518C6.03587 29.5771 8.57275 30.757 11.7216 30.9811C15.2591 31.2327 18.1913 29.5496 19.7012 26.4003C20.2426 25.271 20.2832 25.0399 20.3356 22.7813C20.3859 20.6169 20.3526 20.3064 20.0121 19.7638C19.5616 19.0461 18.6699 18.4659 17.7684 18.3041C17.0348 18.1725 16.466 17.7547 16.466 17.3477C16.466 17.123 16.7513 17.0892 18.094 17.1542C19.5032 17.2223 19.9166 17.3266 21.1695 17.9288C23.7248 19.1574 25.5065 21.4968 25.9466 24.2014C26.0608 24.9041 26.1388 29.3996 26.1395 35.3419C26.1408 44.1496 26.1748 45.3378 26.4333 45.5958C26.7793 45.9408 27.6482 45.9799 27.9643 45.6646C28.1329 45.4965 28.1876 42.7987 28.1876 34.6609C28.1876 22.8648 28.1865 22.8507 27.075 20.6542C26.4171 19.3542 24.6274 17.3815 23.3838 16.5855C21.874 15.6191 20.0958 15.057 18.1871 14.9423C17.2404 14.8857 16.466 14.7625 16.466 14.6685C16.466 14.1342 16.9131 13.7909 17.8657 13.5936C18.6394 13.4334 19.0537 13.217 19.5369 12.7206C20.3275 11.9088 20.4339 11.379 20.3384 8.72556C20.2729 6.90584 20.1957 6.4955 19.7427 5.55957C18.9847 3.99374 17.4771 2.45686 15.9611 1.70429C14.7854 1.12079 14.5576 1.07458 12.6519 1.03226C11.4044 1.00461 10.2421 1.08256 9.67495 1.23159ZM44.2763 1.31269C42.2541 2.06359 40.5496 3.61847 39.6005 5.5785C39.1575 6.49309 39.0788 6.91549 39.0137 8.72556C38.9183 11.379 39.0247 11.9088 39.8152 12.7206C40.2984 13.217 40.7128 13.4334 41.4864 13.5936C42.439 13.7909 42.8861 14.1342 42.8861 14.6685C42.8861 14.7625 42.1115 14.8857 41.1651 14.9423C39.2563 15.057 37.4782 15.6191 35.9683 16.5855C34.7247 17.3815 32.935 19.3542 32.2771 20.6542C31.1656 22.8507 31.1645 22.8648 31.1645 34.6609C31.1645 42.7987 31.2192 45.4965 31.3878 45.6646C31.7039 45.9799 32.5728 45.9408 32.9188 45.5958C33.1773 45.3378 33.2113 44.1496 33.2126 35.3419C33.2134 29.3996 33.2913 24.9041 33.4056 24.2014C33.8456 21.4968 35.6273 19.1574 38.1826 17.9288C39.4355 17.3266 39.8489 17.2223 41.2581 17.1542C42.6009 17.0892 42.8861 17.123 42.8861 17.3477C42.8861 17.7547 42.3173 18.1725 41.5837 18.3041C40.6823 18.4659 39.7905 19.0461 39.34 19.7638C38.9996 20.3064 38.9663 20.6169 39.0165 22.7813C39.069 25.0399 39.1095 25.271 39.6509 26.4003C41.1608 29.5496 44.093 31.2327 47.6305 30.9811C50.7794 30.757 53.3163 29.5771 55.6474 27.2518C57.3286 25.5748 58.2507 24.0786 58.9171 21.9461C59.3233 20.6464 59.3521 20.2528 59.3521 16.0072C59.3521 11.7538 59.3238 11.3706 58.9155 10.0729C57.5917 5.86783 54.8931 3.02904 50.8484 1.58718C48.9947 0.926479 45.6883 0.788398 44.2763 1.31269Z" fill="#2E0E81"/>
</svg>
