<svg width="34" height="45" viewBox="0 0 34 45" fill="none" xmlns="http://www.w3.org/2000/svg">
<path fill-rule="evenodd" clip-rule="evenodd" d="M20.5876 2.63547C17.8028 4.08052 13.5939 6.26354 11.2345 7.48664C8.87511 8.70975 6.4883 10.0238 5.93049 10.4068C3.96535 11.7564 2.04999 14.1133 1.15772 16.2803C0.0399804 18.9945 -0.0400479 20.2014 0.0114296 33.5708L0.0529207 44.3509L0.384991 44.6192C0.702857 44.8759 1.04689 44.8873 8.49185 44.8873C15.6914 44.8873 16.2883 44.8692 16.5589 44.6418C16.8482 44.3986 16.8514 44.3086 16.8966 35.3471C16.942 26.3286 16.9433 26.2948 17.2669 25.3242C17.7503 23.8742 18.3527 22.8982 19.4103 21.8513C20.3329 20.938 20.5359 20.8236 26.7323 17.7298C30.2375 15.9796 33.1519 14.4768 33.2087 14.3901C33.4663 13.9974 33.1784 13.2942 31.0835 9.19826C29.8555 6.79722 28.3599 3.86152 27.7597 2.67461C26.6293 0.438708 26.3147 -0.0130455 25.8971 0.000282698C25.7618 0.00463189 23.3725 1.19056 20.5876 2.63547ZM27.2414 5.69491C27.4851 5.75987 27.7749 6.19704 28.4018 7.44455C29.2457 9.12362 29.4038 9.78147 29.0367 10.0855C28.843 10.2457 24.8018 12.2548 19.146 15.0023L16.4385 16.3176V16.9993C16.4385 19.7135 12.9033 20.7873 11.3251 18.5527C11.0159 18.1148 10.9065 17.773 10.8498 17.0682C10.7863 16.2782 10.7237 16.1137 10.394 15.8706C9.53222 15.2351 9.28243 13.7241 9.86837 12.6921C10.4871 11.6024 12.0096 11.1729 13.174 11.7596L13.6958 12.0227L15.8056 10.988C16.9659 10.4191 19.909 8.97575 22.3457 7.78084C24.7825 6.58594 26.8078 5.60821 26.8465 5.60821C26.8852 5.60807 27.063 5.64721 27.2414 5.69491ZM7.2073 14.7586C7.399 14.9323 8.16202 15.9251 8.90282 16.9651C10.302 18.9288 10.4775 19.385 10 19.8162C9.71296 20.0752 5.39574 21.4578 4.87366 21.4578C4.38378 21.4578 4.08616 21.065 3.92189 20.2013C3.51302 18.0508 4.10276 16.3228 5.70742 14.9691C6.42768 14.3613 6.72291 14.3199 7.2073 14.7586ZM11.8141 22.2354C14.6652 23.2388 14.5303 27.4136 11.6213 28.2004L11.0938 28.3431L11.0917 35.4578C11.0905 39.3708 11.0431 42.6418 10.9862 42.7267C10.7346 43.1027 10.1965 43.2037 8.44642 43.2037C6.86215 43.2037 6.58085 43.1688 6.29224 42.9356L5.96017 42.6675L5.92121 35.5717L5.88239 28.476L5.49926 28.2772C3.81274 27.4019 3.49881 24.7678 4.92682 23.4734C5.78056 22.6995 7.03669 22.4095 7.92728 22.7808C8.45781 23.0019 8.4955 22.9992 8.8806 22.7153C9.79257 22.0427 10.7988 21.8781 11.8141 22.2354Z" fill="#2E0E81"/>
</svg>
