<svg width="17" height="24" viewBox="0 0 17 24" fill="none" xmlns="http://www.w3.org/2000/svg">
<path fill-rule="evenodd" clip-rule="evenodd" d="M6.58593 0.0887476C2.63902 0.841498 -0.220774 4.39566 0.0134043 8.25711C0.161327 10.6958 2.35262 14.5123 6.37314 19.3336C7.36359 20.5213 7.56093 20.7189 7.80079 20.7639C8.26523 20.8511 8.4282 20.7522 9.0935 19.9795C13.3029 15.0906 15.8589 10.7332 15.9886 8.22468C16.1784 4.55463 13.666 1.21543 9.9623 0.215367C9.13955 -0.00671757 7.42406 -0.0711087 6.58593 0.0887476ZM8.52872 5.05318L8.80102 5.32548V6.25451V7.18353H9.73004H10.6591L10.9314 7.45583C11.1276 7.65205 11.2037 7.79973 11.2037 7.98441C11.2037 8.1691 11.1276 8.31678 10.9314 8.513L10.6591 8.7853H9.73004H8.80102V9.71432V10.6433L8.52872 10.9156C8.3325 11.1119 8.18482 11.1879 8.00013 11.1879C7.81545 11.1879 7.66777 11.1119 7.47155 10.9156L7.19925 10.6433V9.71432V8.7853H6.27022H5.3412L5.0689 8.513C4.87268 8.31678 4.7966 8.1691 4.7966 7.98441C4.7966 7.79973 4.87268 7.65205 5.0689 7.45583L5.3412 7.18353H6.27022H7.19925V6.25451V5.32548L7.47155 5.05318C7.66777 4.85696 7.81545 4.78088 8.00013 4.78088C8.18482 4.78088 8.3325 4.85696 8.52872 5.05318ZM1.95595 17.2968C1.32789 17.636 0.561929 18.3591 0.267364 18.8909C0.0580133 19.2688 0.031344 19.3938 0.031344 19.9977C0.031344 20.6028 0.0577732 20.7261 0.269286 21.108C1.24284 22.8658 4.28355 23.9974 8.04018 24C11.2769 24.0023 14.0076 23.1314 15.3117 21.681C16.6371 20.2068 16.0131 18.2936 13.8484 17.1946L13.4899 17.0126L13.3279 17.234C12.0982 18.914 9.77665 21.6757 9.36508 21.9481C8.97345 22.2072 8.39064 22.4003 8.00013 22.4003C7.62708 22.4003 7.04172 22.2133 6.66098 21.9725C6.33534 21.7665 4.46311 19.584 3.33523 18.0956C2.8929 17.5119 2.5092 17.0354 2.48253 17.0366C2.45586 17.0377 2.21888 17.1548 1.95595 17.2968Z" fill="white"/>
</svg>
