<svg width="17" height="26" viewBox="0 0 17 26" fill="none" xmlns="http://www.w3.org/2000/svg">
<path fill-rule="evenodd" clip-rule="evenodd" d="M7.30328 0.48269C5.67266 0.772035 4.08606 1.66098 2.86316 2.9705C0.98753 4.97896 0.149735 7.72246 0.568239 10.4854C1.07581 13.8367 3.82365 19.1429 7.92891 24.6988C8.29591 25.1955 8.63259 25.6005 8.67708 25.5989C8.77466 25.5953 9.78477 24.1948 11.0165 22.3551C14.4572 17.2163 16.5568 12.7215 16.8245 9.92152C16.8632 9.51731 16.8626 8.84012 16.8231 8.35327C16.5013 4.38484 13.7164 1.19538 9.94456 0.475606C9.39257 0.370275 7.91434 0.374238 7.30328 0.48269ZM9.55741 5.47973C10.5217 5.75465 11.3692 6.523 11.8029 7.51543C12.6114 9.36551 11.8943 11.5216 10.1606 12.4531C9.63908 12.7332 9.59836 12.7412 8.67551 12.7412C7.73888 12.7412 7.71887 12.7371 7.13262 12.427C5.36016 11.4893 4.68059 9.28076 5.57682 7.37063C5.98681 6.49678 6.95322 5.67555 7.83299 5.4535C8.28662 5.33898 9.10756 5.35146 9.55741 5.47973Z" fill="#9E9E9E"/>
</svg>
