<svg width="47" height="45" viewBox="0 0 47 45" fill="none" xmlns="http://www.w3.org/2000/svg">
<path fill-rule="evenodd" clip-rule="evenodd" d="M22.113 0.170359C21.9518 0.261564 21.7714 0.40758 21.7122 0.494838C21.653 0.582097 21.6036 4.75107 21.6023 9.75915L21.6001 18.8649L20.9774 19.1432C20.3967 19.4026 20.3479 19.4047 20.255 19.1726C20.2002 19.0356 20.1508 17.9838 20.1451 16.8351C20.1269 13.1321 19.7061 10.6608 18.7585 8.69232C17.7451 6.58686 16.424 5.64309 14.5075 5.65537C12.6012 5.66765 10.7126 6.65044 8.648 8.70459C5.42305 11.9131 2.11136 17.7394 0.952315 22.2433C0.193882 25.1908 -0.00920812 27.0242 0.000316243 30.8358C0.0110128 35.0159 0.408252 38.2686 1.45417 42.7392C1.97611 44.9701 2.15663 45.1206 3.80801 44.7031C10.4087 43.0342 16.0449 40.6753 18.4049 38.5939C19.9517 37.2298 20.0998 36.3166 20.234 27.3216L20.3247 21.2497L21.4445 20.854C22.8947 20.3416 23.8222 20.3416 25.2724 20.854L26.3922 21.2497L26.4829 27.3216C26.6171 36.3166 26.7653 37.2298 28.312 38.5939C30.672 40.6753 36.3082 43.0342 42.9089 44.7031C44.5603 45.1206 44.7408 44.9701 45.2627 42.7392C46.3087 38.2686 46.7059 35.0159 46.7166 30.8358C46.7314 24.9563 45.9464 21.36 43.655 16.8091C40.1391 9.82565 35.8837 5.67905 32.2094 5.65537C28.5503 5.63184 26.608 9.48349 26.5718 16.8351C26.5661 17.9838 26.5167 19.0356 26.4619 19.1726C26.369 19.4047 26.3202 19.4026 25.7396 19.1432L25.1168 18.8649L25.1146 9.75915C25.1133 4.75107 25.0639 0.581074 25.0047 0.492646C24.7814 0.158959 24.2271 -0.00415818 23.3315 8.05099e-05C22.8225 0.00256526 22.2741 0.0791541 22.113 0.170359ZM12.3042 17.8893C12.5858 18.095 12.612 18.5027 12.468 20.4414C12.4479 20.7105 12.6535 20.9524 13.3718 21.5053L14.3014 22.2209L15.519 21.5588C16.7981 20.8633 17.4655 20.7397 17.8532 21.1264C18.1379 21.4106 18.1536 22.1184 17.88 22.3448C17.7681 22.4375 16.2351 23.2591 14.4733 24.1707L11.2698 25.8282L11.2275 27.1807C11.1711 28.9815 11.4335 29.7889 12.3966 30.7782C13.0195 31.4183 13.1164 31.5948 13.0757 32.0174C13.0423 32.3638 12.9237 32.5617 12.6764 32.684C12.198 32.9205 11.7147 32.7206 10.9391 31.9652L10.3155 31.3578L9.39677 32.266C8.42338 33.2282 8.00108 33.3773 7.5083 32.9325C6.99853 32.4724 7.17041 31.9893 8.266 30.8034L9.2917 29.693V28.279C9.2917 27.5014 9.24057 26.887 9.17814 26.9139C9.11572 26.9406 8.25267 27.3791 7.26023 27.8883C5.59771 28.7413 5.42247 28.8005 5.03416 28.64C4.23382 28.3093 4.28277 27.3293 5.11944 26.9313C5.39946 26.7981 5.62849 26.6478 5.62849 26.5973C5.62849 26.5467 5.32546 26.2794 4.95519 26.0031C4.58505 25.7269 4.2224 25.3901 4.14928 25.2548C3.83468 24.6709 4.11235 24.047 4.75561 23.8928C5.05863 23.8202 5.33806 23.9687 6.25358 24.6888C6.87266 25.1757 7.45511 25.574 7.54801 25.574C7.64091 25.574 8.7705 25.0339 10.0582 24.3737L12.3996 23.1736L11.9707 22.8025C11.7349 22.5984 10.7677 21.8501 9.8214 21.1393C7.86686 19.6711 7.62391 19.3377 8.07214 18.7367C8.51847 18.1382 8.90604 18.1611 9.80661 18.8393C10.2418 19.167 10.6251 19.4352 10.6584 19.4352C10.6916 19.4352 10.7538 19.1268 10.7963 18.7498C10.9072 17.7685 11.5989 17.3737 12.3042 17.8893ZM35.5804 17.8729C35.7417 17.9905 35.873 18.3289 35.9207 18.7498C35.9632 19.1268 36.0253 19.4352 36.0585 19.4352C36.0918 19.4352 36.4751 19.167 36.9103 18.8393C37.8109 18.1611 38.1984 18.1382 38.6448 18.7367C39.093 19.3377 38.8501 19.6711 36.8955 21.1393C35.9492 21.8501 34.982 22.5984 34.7462 22.8025L34.3173 23.1736L36.6587 24.3737C37.9464 25.0339 39.0778 25.574 39.1729 25.574C39.268 25.574 39.7873 25.2244 40.3269 24.797C40.8667 24.3696 41.4241 23.9769 41.566 23.9241C41.9395 23.7851 42.5128 24.0459 42.6277 24.4069C42.8005 24.9502 42.5776 25.3783 41.8225 25.9526C41.4187 26.2598 41.0884 26.5511 41.0884 26.6C41.0884 26.649 41.3136 26.7962 41.5888 26.9272C42.4261 27.3254 42.484 28.309 41.6895 28.6373C41.2924 28.8012 41.1299 28.7469 39.4567 27.8883C38.4643 27.3791 37.6012 26.9406 37.5388 26.9139C37.4764 26.887 37.4252 27.5014 37.4252 28.279V29.693L38.4509 30.8034C39.5327 31.9744 39.692 32.4024 39.2341 32.9071C38.7853 33.4018 38.3069 33.2416 37.3202 32.266L36.4014 31.3578L35.7778 31.9652C35.0022 32.7206 34.519 32.9205 34.0406 32.684C33.7932 32.5617 33.6747 32.3638 33.6413 32.0174C33.6005 31.5948 33.6974 31.4183 34.3203 30.7782C35.2834 29.7889 35.5458 28.9815 35.4894 27.1807L35.4471 25.8282L32.2437 24.1707C30.4818 23.2591 28.9488 22.4375 28.8369 22.3448C28.5633 22.1184 28.579 21.4106 28.8637 21.1264C29.2514 20.7397 29.9188 20.8633 31.1979 21.5588L32.4155 22.2209L33.3451 21.5053C34.0634 20.9524 34.269 20.7105 34.2489 20.4414C34.1049 18.5027 34.1311 18.095 34.4127 17.8893C34.7681 17.6294 35.2377 17.6229 35.5804 17.8729Z" fill="#2E0E81"/>
</svg>
