<?xml version="1.0" encoding="UTF-8"?>
<svg width="145px" height="171px" viewBox="0 0 145 171" version="1.1" xmlns="http://www.w3.org/2000/svg" xmlns:xlink="http://www.w3.org/1999/xlink">
    <!-- Generator: Sketch 62 (91390) - https://sketch.com -->
    <title>Group 1753</title>
    <desc>Created with Sketch.</desc>
    <g id="Page-1" stroke="none" stroke-width="1" fill="none" fill-rule="evenodd">
        <g id="Group-1753">
            <path d="M14.818,14.3357 C-0.894,30.0365 -1.271,30.5509 1.149,32.9707 L2.404,34.2266 L16.084,34.0851 C35.229,33.8873 34.162,34.9835 34.163,15.517 L34.163,2.38285 L32.982,1.20204 C30.492,-1.289 30.358,-1.19229 14.818,14.3357 Z M38.88,15.0474 C38.719,31.7172 38.659,32.0627 35.351,35.3713 C32.042,38.6794 31.696,38.7395 15.037,38.9012 L0,39.0465 L0,84.2674 C0,123.873 0.092,129.708 0.74,131.26 C1.737,133.645 2.763,134.718 5.052,135.77 C6.878,136.608 9.393,136.653 54.132,136.653 C98.871,136.653 101.386,136.608 103.212,135.77 C105.502,134.718 106.527,133.645 107.524,131.26 C108.177,129.697 108.265,122.245 108.265,67.995 C108.265,9.0197 108.228,6.43339 107.372,4.83684 C106.881,3.92165 105.67,2.51758 104.681,1.7169 L102.883,0.261345 L70.954,0.130947 L39.026,0.000548263 L38.88,15.0474 Z M112.964,74.2421 C112.836,131.091 112.835,131.143 111.814,133.349 C110.511,136.167 107.757,138.921 104.939,140.224 C102.748,141.238 102.396,141.247 60.215,141.379 L17.7,141.511 L17.88,145.073 C18.036,148.178 18.247,148.869 19.529,150.473 C22.559,154.265 18.571,153.996 71.784,153.996 C104.166,153.997 119.7,153.834 120.624,153.485 C122.467,152.789 124.604,150.712 125.405,148.84 C125.957,147.552 126.066,136.962 126.057498,85.8057 C126.047,27.173 126.006,24.2306 125.163,22.3954 C123.571,18.929 120.691,17.3431 115.986,17.3431 L113.092,17.3431 L112.964,74.2421 Z M88.018,58.5264 C89.852,60.07 89.966,61.976 88.338,63.8699 L87.176,65.2201 L55.816,65.2201 L24.457,65.2201 L23.295,63.8699 C21.742,62.064 21.82,60.4073 23.541,58.6871 L24.947,57.2807 L55.742,57.2807 L86.538,57.2807 L88.018,58.5264 Z M88.338,80.5243 C90.198,82.6882 89.738,85.2254 87.245,86.5539 C86.477,86.9625 77.929,87.1135 55.57,87.1135 L24.947,87.1135 L23.541,85.7071 C22.754,84.9203 22.134,83.7829 22.134,83.1256 C22.134,81.6248 23.761,79.5423 25.151,79.2651 C25.741,79.1472 39.939,79.0784 56.7,79.1126 L87.177,79.1742 L88.338,80.5243 Z M57.412,100.184 C59.977,101.55 60.456,104.488 58.425,106.397 L57.184,107.564 L41.73,107.704 C25.485,107.85 24.247,107.719 22.837,105.706 C21.756,104.164 21.996,102.576 23.541,101.031 L24.947,99.6241 L40.654,99.6241 C51.672,99.6241 56.674,99.7911 57.412,100.184 Z" id="Shape" fill="#CECECE"></path>
            <path d="M144.999,141 C144.999,157.567 131.567,170.999 115,170.999 C98.429,170.999 85,157.567 85,141 C85,124.432 98.429,111 115,111 C131.567,111 144.999,124.432 144.999,141 Z" id="Path" fill="#B1B5B7" fill-rule="nonzero"></path>
            <path d="M144.997,141.008 C144.997,157.576 131.573,171 115.005,171 C104.911,171 95.982,166.018 90.553,158.38 C93.418,159.016 96.393,159.355 99.448,159.355 C120.057,159.355 137.096,144.114 139.923,124.289 C143.126,129.062 144.997,134.811 144.997,141.008 Z" id="Path" fill="#878B8E" fill-rule="nonzero"></path>
            <path d="M116.629,144.703 L113.37,144.703 C112.192,144.703 111.244,143.75 111.244,142.578 L111.244,124.881 C111.244,123.706 112.192,122.756 113.37,122.756 L116.629,122.756 C117.805,122.756 118.755,123.706 118.755,124.881 L118.755,142.578 C118.755,143.75 117.805,144.703 116.629,144.703 Z" id="Path" fill="#FFFFFF" fill-rule="nonzero"></path>
            <path d="M119.294,154.337 C119.294,151.965 117.372,150.043 115,150.043 C112.628,150.043 110.706,151.965 110.706,154.337 C110.706,156.706 112.628,158.626 115,158.626 C117.372,158.626 119.294,156.706 119.294,154.337 Z" id="Path" fill="#FFFFFF" fill-rule="nonzero"></path>
        </g>
    </g>
</svg>