<svg width="28" height="29" viewBox="0 0 28 29" fill="none" xmlns="http://www.w3.org/2000/svg">
<path d="M24.9638 23.1756C24.8646 22.9516 24.8422 22.6252 24.9254 22.3948C25.5686 20.5708 26.2278 18.7564 26.9126 16.9452C27.6422 15.022 28.2086 13.086 27.9238 10.9836C27.6006 8.59638 26.6214 6.52918 24.8582 4.89718C23.9974 4.10358 22.9894 3.47958 21.991 2.73718C22.0678 2.52598 22.1926 2.19638 22.3142 1.86678C22.5126 1.32278 22.359 0.897179 21.9014 0.727579C21.431 0.554779 21.0374 0.749979 20.8166 1.27798C20.6726 1.61718 20.5446 1.95958 20.4038 2.31158C19.0726 1.98518 17.7574 1.85398 16.423 2.04598C12.4454 2.61558 9.575 4.70198 8.023 8.42358C7.0726 10.7116 6.2886 13.07 5.4438 15.3996C5.3414 15.6876 5.1782 15.8572 4.8998 15.982C3.4854 16.6156 2.0806 17.2684 0.666196 17.9116C0.288596 18.0812 0.00699566 18.3212 0.0165957 18.7692C0.0261957 19.2332 0.352596 19.4188 0.736596 19.5564C3.3766 20.5036 6.0102 21.4604 8.6566 22.3884C9.0534 22.5292 9.191 22.686 9.1686 23.1244C9.0342 26.062 11.7894 28.2508 14.6406 27.5052C15.7958 27.2044 16.6758 26.5292 17.3382 25.5244C17.4758 25.5724 17.6006 25.6172 17.7254 25.6588C20.407 26.6188 23.0886 27.5788 25.7702 28.5452C26.1734 28.6892 26.5446 28.75 26.8774 28.4076C27.223 28.0492 27.079 27.6812 26.8998 27.3036C26.2406 25.9372 25.5846 24.5644 24.9638 23.1756ZM12.8262 25.9468C11.5494 25.5788 10.7046 24.4332 10.7942 23.1276C12.4646 23.7228 14.0998 24.3084 15.7414 24.894C15.2742 25.79 13.9334 26.2668 12.8262 25.9468Z" fill="#DBDDE0"/>
</svg>
