<svg width="25" height="24" viewBox="0 0 25 24" fill="none" xmlns="http://www.w3.org/2000/svg">
<path fill-rule="evenodd" clip-rule="evenodd" d="M8.0389 0.0689399C6.39881 0.390772 4.91764 1.64672 4.32803 3.21549C3.83504 4.52729 3.89697 5.87918 4.50865 7.15675C4.85083 7.87136 5.27333 8.39979 5.91234 8.91238C6.81951 9.63997 7.8091 9.9817 9.0086 9.9817C10.2081 9.9817 11.1977 9.63997 12.1049 8.91238C12.7439 8.39979 13.1664 7.87136 13.5085 7.15675C14.1202 5.87918 14.1822 4.52729 13.6892 3.21549C13.117 1.69334 11.6598 0.432437 10.0875 0.0993438C9.52547 -0.0197949 8.56357 -0.0340584 8.0389 0.0689399ZM3.90913 12.1155C2.10861 12.5059 0.615137 13.9718 0.145038 15.81C0.0187678 16.3036 0 16.6473 0 18.4628V20.5486L0.181148 20.7593L0.362296 20.9699L3.77993 20.9909L7.19764 21.0118L7.12723 20.7662C7.02198 20.3994 7.0421 19.5034 7.16469 19.0961C7.42038 18.2464 8.18108 17.4805 9.0625 17.1851C9.48155 17.0447 9.70564 17.0287 11.2505 17.0287C12.7789 17.0287 13.0279 17.0461 13.4747 17.1841C13.7514 17.2696 13.9876 17.3287 13.9995 17.3154C14.0114 17.3022 14.2149 16.9029 14.4516 16.4281C14.6882 15.9533 15.0026 15.3994 15.1502 15.1972C15.4571 14.7769 16.1187 14.3187 16.6223 14.1777C16.8114 14.1247 16.9662 14.0384 16.9662 13.9859C16.9662 13.9335 16.7093 13.6505 16.3953 13.3573C15.7297 12.7357 14.8811 12.2799 14.0759 12.1114C13.3257 11.9544 4.63575 11.9579 3.90913 12.1155ZM17.1238 16.0908C16.9834 16.1537 16.8218 16.2638 16.7649 16.3354C16.7079 16.407 16.1532 17.4751 15.5323 18.7089C14.831 20.1024 14.3768 20.9255 14.3331 20.8818C14.2945 20.8431 14.035 20.4778 13.7565 20.0699C13.0132 18.9812 13.1043 19.0226 11.3912 18.9946C9.80751 18.9688 9.47652 19.0308 9.20483 19.4042C8.86896 19.866 9.00237 20.5682 9.48147 20.8603C9.69115 20.9883 9.86532 21.0072 10.8479 21.0089L11.9739 21.0109L12.8748 22.3727C13.4125 23.1855 13.8665 23.7918 14.0009 23.8766C14.3268 24.0823 14.8761 24.0239 15.1583 23.7534C15.2786 23.6383 15.8506 22.5916 16.4795 21.3364C17.0895 20.1188 17.6123 19.1497 17.6413 19.1829C17.6703 19.2161 18.1262 19.9696 18.6544 20.8573C19.7099 22.6311 19.8195 22.7808 20.1731 22.9315C20.5142 23.0768 23.0274 23.0768 23.3685 22.9315C24.1195 22.6115 24.2483 21.6071 23.5934 21.1771C23.4311 21.0705 23.1691 21.0377 22.2355 21.0075L21.0788 20.9699L19.6794 18.6484C18.9097 17.3716 18.1947 16.2644 18.0905 16.1879C17.8266 15.9941 17.4287 15.9542 17.1238 16.0908Z" fill="white"/>
</svg>
