<svg width="24" height="25" viewBox="0 0 24 25" fill="none" xmlns="http://www.w3.org/2000/svg">
<path fill-rule="evenodd" clip-rule="evenodd" d="M10.243 0.0905854C7.57019 0.525663 5.2837 1.69774 3.41889 3.58867C1.77915 5.25144 0.686262 7.30353 0.170869 9.6875C0.0244634 10.3646 0 10.699 0 12.021C0 13.3429 0.0244634 13.6773 0.170869 14.3544C0.415506 15.4859 0.725404 16.3693 1.2405 17.403C1.83636 18.5987 2.53067 19.5598 3.4959 20.5251C5.19676 22.2259 7.23568 23.3246 9.66654 23.8501C10.3436 23.9965 10.6781 24.021 12 24.021C13.3219 24.021 13.6564 23.9965 14.3335 23.8501C15.4578 23.607 16.3437 23.2967 17.382 22.7821C18.5674 22.1947 19.5313 21.4979 20.5041 20.5251C22.2001 18.829 23.3051 16.7784 23.8291 14.3544C23.9755 13.6773 24 13.3429 24 12.021C24 10.699 23.9755 10.3646 23.8291 9.6875C23.4652 8.00395 22.7411 6.3353 21.8049 5.02231C21.1542 4.1097 19.9113 2.8668 18.9986 2.21606C17.6945 1.28614 16.0062 0.551331 14.3711 0.201989C13.3786 -0.0100542 11.2192 -0.0683156 10.243 0.0905854ZM13.4537 4.14418C13.7435 4.26529 14.136 4.64181 14.3168 4.97211C14.4279 5.17512 14.4517 5.51392 14.484 7.35404L14.5216 9.49932L16.6669 9.53695C19.0255 9.57835 19.0312 9.57941 19.5301 10.0782C19.9323 10.4805 19.9789 10.6821 19.9789 12.021C19.9789 13.3598 19.9323 13.5614 19.5301 13.9637C19.0312 14.4625 19.0255 14.4636 16.6669 14.505L14.5216 14.5426L14.484 16.6879C14.4426 19.0465 14.4415 19.0522 13.9427 19.551C13.5405 19.9533 13.3389 19.9999 12 19.9999C10.6611 19.9999 10.4595 19.9533 10.0573 19.551C9.55845 19.0522 9.55739 19.0465 9.516 16.6879L9.47836 14.5426L7.33308 14.505C4.97448 14.4636 4.96876 14.4625 4.46993 13.9637C4.06767 13.5614 4.02108 13.3598 4.02108 12.021C4.02108 10.6821 4.06767 10.4805 4.46993 10.0782C4.96876 9.57941 4.97448 9.57835 7.33308 9.53695L9.47836 9.49932L9.516 7.35404L9.55363 5.20876L9.75589 4.86477C9.93835 4.55427 10.3477 4.19951 10.6451 4.09397C10.7072 4.07192 11.3095 4.05122 11.9836 4.04798C12.8571 4.04377 13.2794 4.07139 13.4537 4.14418Z" fill="white"/>
</svg>
