<svg width="16" height="24" viewBox="0 0 16 24" fill="none" xmlns="http://www.w3.org/2000/svg">
<path fill-rule="evenodd" clip-rule="evenodd" d="M6.20237 0.13725C3.20323 0.787102 0.950397 2.96878 0.171042 5.97816C0.0264798 6.5363 -0.00137937 6.83529 5.11952e-05 7.81206C0.00163234 8.82799 0.0272319 9.07374 0.197695 9.70989C1.029 12.8122 3.51479 15.0607 6.63281 15.5308C7.03744 15.5918 7.55477 15.6416 7.78253 15.6416C8.01029 15.6416 8.52763 15.5918 8.93225 15.5308C12.0485 15.061 14.5366 12.8104 15.3674 9.70989C15.5378 9.07374 15.5634 8.82799 15.565 7.81206C15.5664 6.83318 15.5387 6.53676 15.3929 5.97364C14.6476 3.0952 12.5599 0.979098 9.7025 0.206068C8.79921 -0.0383327 7.16122 -0.0704825 6.20237 0.13725ZM8.33082 2.6448C8.699 2.80171 8.86562 3.02706 9.36948 4.04954C9.62397 4.56597 9.83923 4.99657 9.84781 5.00628C9.8564 5.01607 10.3524 5.09513 10.95 5.18209C12.3767 5.38975 12.7023 5.5907 12.9017 6.38685C13.0429 6.95049 12.8759 7.26815 11.9491 8.19944L11.1514 9.00086L11.2928 9.78059C11.3706 10.2094 11.4342 10.8001 11.4342 11.0933C11.4342 11.5649 11.4092 11.6592 11.2171 11.9109C11.0977 12.0674 10.8605 12.2588 10.69 12.3362C10.1543 12.5794 9.92167 12.5319 8.80508 11.9509L7.78781 11.4215L6.77045 11.9509C5.65228 12.5327 5.41435 12.5811 4.87503 12.3362C4.70457 12.2588 4.4674 12.0674 4.34798 11.9109C4.15591 11.6592 4.13084 11.5649 4.13084 11.0933C4.13084 10.8001 4.19446 10.2094 4.27224 9.78059L4.41364 9.00086L3.61599 8.19944C2.68913 7.26815 2.52213 6.95049 2.66338 6.38685C2.86276 5.5907 3.18832 5.38975 4.61504 5.18209C5.21272 5.09513 5.70867 5.01607 5.71726 5.00628C5.72584 4.99657 5.9411 4.56597 6.19559 4.04954C6.69267 3.04084 6.86479 2.8048 7.21784 2.64789C7.51314 2.51665 8.02671 2.51522 8.33082 2.6448ZM7.18019 5.17682C6.87179 5.79798 6.59502 6.30621 6.56513 6.30621C6.45181 6.30621 4.42342 6.60828 4.24378 6.65195C4.06842 6.69449 4.11909 6.75804 4.98639 7.58302L5.91723 8.46839L5.70702 9.68279C5.59144 10.3507 5.51795 10.9184 5.54386 10.9442C5.56968 10.9701 6.08401 10.7322 6.68672 10.4156L7.78253 9.84L8.87834 10.4156C9.48106 10.7322 9.99539 10.9701 10.0212 10.9442C10.0471 10.9184 9.97363 10.3507 9.85805 9.68279L9.64784 8.46839L10.5787 7.58302C11.446 6.75804 11.4966 6.69449 11.3213 6.65195C11.1416 6.60828 9.11326 6.30621 8.99994 6.30621C8.97005 6.30621 8.69327 5.79798 8.38488 5.17682C8.07648 4.55565 7.80542 4.04743 7.78253 4.04743C7.75964 4.04743 7.48859 4.55565 7.18019 5.17682ZM2.74485 15.8955C2.51874 16.7414 1.00724 22.9718 1.02426 22.9876C1.03503 22.9976 1.55176 22.8229 2.17262 22.5994C2.79341 22.3759 3.35299 22.193 3.41608 22.193C3.47918 22.193 3.93636 22.5996 4.43201 23.0965C4.92766 23.5934 5.35374 24 5.37896 24C5.40411 24 5.50116 23.6866 5.59468 23.3035C5.68812 22.9205 6.06616 21.3771 6.43472 19.8737C6.80335 18.3704 7.1049 17.1115 7.1049 17.0762C7.1049 17.0408 6.92698 16.9892 6.70961 16.9615C5.59814 16.8196 4.20989 16.3649 3.27423 15.8359L2.82812 15.5839L2.74485 15.8955ZM12.2768 15.8417C11.3571 16.3643 9.96519 16.8199 8.85546 16.9615C8.63809 16.9892 8.46017 17.0415 8.46017 17.0777C8.46017 17.1795 10.132 23.9578 10.1665 23.9963C10.1833 24.015 10.6114 23.6168 11.1179 23.1116C11.6243 22.6063 12.0939 22.193 12.1612 22.193C12.2285 22.193 12.7518 22.3624 13.324 22.5694C14.4744 22.9857 14.5882 23.0088 14.5287 22.8141C14.5066 22.7417 14.146 21.2763 13.7274 19.5577C13.3089 17.8392 12.9097 16.2441 12.8403 16.0131L12.7142 15.5932L12.2768 15.8417Z" fill="#5C5A61"/>
</svg>
