<svg width="25" height="26" viewBox="0 0 25 26" fill="none" xmlns="http://www.w3.org/2000/svg">
<path fill-rule="evenodd" clip-rule="evenodd" d="M11.3682 1.44714V2.62153L11.1506 2.65361C7.92601 3.12856 5.15109 5.30165 3.76025 8.44111C3.35699 9.35131 3.04513 10.4715 2.9168 11.4705L2.88683 11.7036H1.79012H0.693359V12.8319V13.9603H1.79012H2.88683L2.9168 14.1933C3.36033 17.6463 5.3897 20.6177 8.32153 22.1071C9.17153 22.5389 10.2176 22.8728 11.1506 23.0103L11.3682 23.0423V24.2167V25.3912H12.422H13.4757V24.2167V23.0423L13.6933 23.0103C16.9179 22.5353 19.6928 20.3622 21.0837 17.2228C21.4869 16.3126 21.7988 15.1924 21.9271 14.1933L21.9571 13.9603H23.0538H24.1505V12.8319V11.7036H23.0538H21.9571L21.9271 11.4705C21.7988 10.4715 21.4869 9.35131 21.0837 8.44111C19.6928 5.30165 16.9179 3.12856 13.6933 2.65361L13.4757 2.62153V1.44714V0.272705H12.422H11.3682V1.44714ZM13.636 4.96117C16.4589 5.43597 18.8366 7.72823 19.6121 10.7224C19.9438 12.0032 19.9438 13.6607 19.6121 14.9415C18.8335 17.9474 16.5011 20.1909 13.6131 20.7118C13.0317 20.8167 11.8122 20.8167 11.2308 20.7118C8.04975 20.1381 5.59903 17.5138 5.06322 14.1075C4.96527 13.4848 4.96527 12.179 5.06322 11.5564C5.55656 8.42011 7.70252 5.89953 10.5529 5.1084C11.5214 4.83955 12.6053 4.7878 13.636 4.96117ZM11.5515 8.36345C11.0545 8.48242 10.832 8.56999 10.4152 8.81077C9.36803 9.41558 8.60846 10.4413 8.29106 11.679C8.14564 12.2462 8.14564 13.4177 8.29106 13.9848C8.62482 15.2864 9.43519 16.3363 10.5665 16.9328C11.2247 17.2798 11.584 17.3631 12.422 17.3631C13.2599 17.3631 13.6192 17.2798 14.2774 16.9328C15.4087 16.3363 16.2191 15.2864 16.5528 13.9848C16.6364 13.659 16.6535 13.4632 16.6535 12.8319C16.6535 12.2006 16.6364 12.0048 16.5528 11.679C16.1454 10.09 14.9589 8.82039 13.4986 8.41099C12.9652 8.26145 12.0689 8.23957 11.5515 8.36345Z" fill="#9E9E9E"/>
</svg>
