<svg width="10" height="16" viewBox="0 0 10 16" fill="none" xmlns="http://www.w3.org/2000/svg">
<path fill-rule="evenodd" clip-rule="evenodd" d="M4.2603 0.0700995C2.0449 0.496547 0.691919 2.90101 1.50106 4.97375C1.85289 5.87503 2.7279 6.74557 3.639 7.10092C4.33984 7.37429 5.66347 7.37429 6.36431 7.10092C7.27541 6.74557 8.15042 5.87503 8.50225 4.97375C9.54025 2.31479 7.12192 -0.480817 4.2603 0.0700995ZM3.75106 9.01437C2.07092 9.46648 0.729104 10.7511 0.210272 12.404C0.0539465 12.902 -0.0608593 14.8022 0.0351034 15.3034C0.0672855 15.4718 0.183258 15.6974 0.292811 15.8048L0.491906 16H5.00166H9.5114L9.7105 15.8048C9.98255 15.5382 10.0345 15.1779 9.98146 13.9254C9.92927 12.6919 9.76711 12.0811 9.27671 11.2708C8.69093 10.3029 7.70012 9.49738 6.64603 9.13222C5.96128 8.89505 4.42663 8.83253 3.75106 9.01437Z" fill="#CACCCF"/>
</svg>
