<svg width="203" height="150" viewBox="0 0 203 150" fill="none" xmlns="http://www.w3.org/2000/svg">
<circle cx="86.0881" cy="83.4778" r="66.5217" fill="#34C981"/>
<path d="M127.348 56L74.2422 109.478L53 88.0869" stroke="url(#paint0_linear)" stroke-width="5" stroke-linecap="round" stroke-linejoin="round"/>
<path d="M165.652 62.6089C167.344 60.498 172.88 57.5752 178.263 60.1733C183.748 62.8209 186.056 60.4386 187.952 55.1394C190.566 47.8324 199.178 48.1571 200.87 53.5157" stroke="url(#paint1_linear)" stroke-width="3" stroke-linecap="round" stroke-linejoin="round"/>
<path d="M32.0199 24.2097L26.3641 18.1234L28.1717 10.0141C28.2725 9.56151 28.1077 9.09087 27.7468 8.80035C27.3858 8.50982 26.891 8.44907 26.4702 8.64442L18.9342 12.1425L11.7801 7.91699C10.9133 7.40502 9.83083 8.11151 9.95185 9.11194L10.9497 17.3604L4.72029 22.8587C3.96563 23.5251 4.30269 24.7735 5.29178 24.9666L13.4448 26.5666C17.0445 34.8707 16.7808 34.3952 17.1026 34.6543C17.2994 34.8127 17.5443 34.9091 17.8065 34.922C18.2693 34.9446 18.7052 34.7031 18.9307 34.2982L22.9716 27.0382L31.2426 26.251C32.2449 26.1562 32.706 24.9486 32.0199 24.2097Z" fill="#FFA92C"/>
<path d="M15.1306 23.4841L14.1328 15.2356C14.0119 14.2363 15.0933 13.5282 15.9611 14.0407L23.1151 18.2661L26.7037 16.6005L28.1717 10.0141C28.2725 9.56151 28.1077 9.09087 27.7468 8.80035C27.3858 8.50982 26.891 8.44907 26.4702 8.64441L18.9342 12.1425L11.7801 7.91699C10.9133 7.40502 9.83083 8.11151 9.95185 9.11194L10.9497 17.3604L4.72029 22.8587C3.96563 23.5251 4.30269 24.7735 5.29178 24.9666L11.9664 26.2765L15.1306 23.4841Z" fill="#FF8828"/>
<defs>
<linearGradient id="paint0_linear" x1="90.1739" y1="56" x2="90.1739" y2="109" gradientUnits="userSpaceOnUse">
<stop stop-color="#34C981"/>
<stop offset="1" stop-color="#532EB3"/>
</linearGradient>
<linearGradient id="paint1_linear" x1="157.788" y1="54.2827" x2="162.754" y2="72.8198" gradientUnits="userSpaceOnUse">
<stop stop-color="#532EB3"/>
<stop offset="1" stop-color="#34C981"/>
</linearGradient>
</defs>
</svg>
