<svg width="31" height="45" viewBox="0 0 31 45" fill="none" xmlns="http://www.w3.org/2000/svg">
<path fill-rule="evenodd" clip-rule="evenodd" d="M14.8696 2.94573C14.6755 4.56616 14.3768 7.07816 14.2058 8.52858C14.0348 9.979 13.537 11.4614 13.0999 11.8233C12.4531 12.3592 12.142 12.0915 11.4276 10.3858C10.9444 9.23331 10.4022 7.04843 10.2222 5.53124C9.8425 2.33246 9.55169 2.0362 7.543 2.79816C6.10188 3.34466 6.0715 3.45352 6.44669 6.76003C6.80556 9.92682 6.73075 10.2663 5.35206 11.7016L3.87213 13.2423L5.97925 13.9947C10.6159 15.6505 14.7638 19.4098 16.984 23.9687C18.2581 26.5845 18.7435 26.7607 21.4638 25.5964C23.8859 24.5601 26.5555 21.5796 27.6906 18.6451C29.0046 15.2482 28.8595 14.4733 26.6421 13.0403C24.5069 11.6606 24.1497 9.97395 25.2106 6.28254C25.6977 4.58972 25.6195 4.39054 24.2701 3.87882C22.0994 3.0557 21.5813 3.49784 20.8309 6.81669C20.0198 10.4043 19.4078 11.5052 18.5252 10.9615C18.0556 10.672 17.9802 9.06106 18.2581 5.27875L18.6467 0H16.9351C15.2898 0 15.2093 0.114463 14.8696 2.94573ZM1.25706 16.0326C-0.976062 19.4328 -0.117686 28.6504 2.9125 33.8057C5.95225 38.9773 13.6096 44.8873 17.2709 44.8873C19.4523 44.8873 22.2248 42.8191 24.0833 39.806L25.8012 37.0214L23.5602 36.127C21.4131 35.2696 17.9301 31.99 17.9301 30.8247C17.9301 30.5183 17.029 28.4445 15.9276 26.2153C13.0189 20.3306 9.83688 17.3327 4.50606 15.4569C2.22963 14.6557 2.15313 14.6692 1.25706 16.0326ZM28.6621 21.2345C27.3048 23.8885 24.2931 26.5935 21.6235 27.5563C19.3977 28.3592 19.1823 29.11 20.5266 31.3807C21.5436 33.0971 23.0095 34.1486 25.2989 34.8039C26.7946 35.2315 26.8818 35.1288 28.3381 31.2286C29.7179 27.5333 30.9554 19.0771 30.1167 19.0771C29.9232 19.0771 29.269 20.0478 28.6621 21.2345Z" fill="#16CBAC"/>
</svg>
