<svg width="50" height="45" viewBox="0 0 50 45" fill="none" xmlns="http://www.w3.org/2000/svg">
<path fill-rule="evenodd" clip-rule="evenodd" d="M24.3052 0.264353C23.9531 0.652519 23.9597 1.5422 24.3334 4.07666C24.8451 7.54586 25.3146 9.08022 26.8963 12.4548C28.0236 14.86 28.4538 16.277 28.5916 18.0388C28.7839 20.4958 27.9848 22.6793 26.2716 24.3784C25.0819 25.5581 23.226 26.7746 21.6469 27.4093C20.4671 27.8835 20.3228 27.9051 18.3321 27.9018C16.4306 27.8988 16.0514 27.8477 13.9447 27.3104C11.7526 26.7513 11.5468 26.7258 9.78193 26.7927C8.27747 26.8496 7.68081 26.9453 6.6375 27.2971C4.57724 27.9917 2.95561 29.1841 1.97613 30.7247C1.20016 31.9451 0.213892 34.9205 0.042139 36.5585C-0.0429664 37.3707 -0.0149064 37.5226 0.273558 37.8104C0.582527 38.1186 0.754588 38.1378 3.21185 38.1378C6.12825 38.1378 6.21737 38.1086 6.39359 37.0948C6.54499 36.2242 7.12361 35.4491 7.90313 35.0726C8.7622 34.6578 10.509 34.4884 11.2868 34.7444C12.0486 34.9953 12.4956 35.5732 13.5486 37.6684C15.1539 40.8628 16.2686 41.8903 19.5325 43.1844C22.565 44.3869 24.1832 44.7619 26.7728 44.862C29.2817 44.959 30.6568 44.7888 32.5629 44.1453C35.8798 43.0256 39.1468 40.7758 42.5444 37.2715C44.8122 34.9327 46.0667 33.2339 47.2343 30.9212C48.6745 28.0687 49.2374 25.6611 49.2329 22.3743C49.2256 17.0712 47.6258 12.8908 44.812 10.8236C42.7402 9.30153 41.1039 8.81401 37.2958 8.58425C33.7513 8.37033 33.1265 8.1987 32.1128 7.16031C31.1455 6.16928 30.9255 5.55105 30.5287 2.70823C30.3267 1.26137 30.1502 0.493654 29.9806 0.324485C29.7744 0.118713 29.2765 0.065348 27.1521 0.0215178C24.7649 -0.0278488 24.5539 -0.00970123 24.3052 0.264353Z" fill="#16CBAC"/>
</svg>
