<svg width="41" height="45" viewBox="0 0 41 45" fill="none" xmlns="http://www.w3.org/2000/svg">
<path fill-rule="evenodd" clip-rule="evenodd" d="M8.44669 0.359648C7.43664 0.650635 5.50141 1.9525 4.14568 3.2527C-0.4937 7.70272 -0.69155 13.426 3.50323 21.8764C5.19058 25.2769 6.46087 28.9577 7.39673 33.1621C9.50508 42.6335 11.4791 45.6348 14.53 44.006C15.9993 43.2216 17.6439 39.6109 18.1734 36.0053C19.0087 30.3235 22.3541 30.3235 23.1894 36.0053C23.7189 39.6109 25.3635 43.2216 26.8328 44.006C29.8837 45.6348 31.8577 42.6335 33.9661 33.1621C34.9019 28.9577 36.1722 25.2769 37.8596 21.8764C42.0516 13.4316 41.856 7.70216 37.2256 3.26054C33.8469 0.0198803 31.4008 -0.5677 24.9161 0.30414C21.0861 0.818834 19.0188 0.83229 16.5029 0.357965C12.6313 -0.370904 10.9845 -0.370903 8.44669 0.359648ZM14.4986 5.26494C14.4986 6.04427 13.955 6.40197 12.3908 6.65315C9.61019 7.09888 7.81266 8.42206 6.84364 10.7365C6.02189 12.6988 4.58129 13.2376 4.02483 11.7911C3.5184 10.4741 6.38218 6.15864 8.43207 5.15112C9.45 4.65044 11.2318 4.23499 12.3908 4.22826C14.0804 4.21817 14.4986 4.42337 14.4986 5.26494Z" fill="#16CBAC"/>
</svg>
