<svg width="41" height="45" viewBox="0 0 41 45" fill="none" xmlns="http://www.w3.org/2000/svg">
<path class="specs-icon" fill-rule="evenodd" clip-rule="evenodd" d="M8.44644 0.35977C7.43639 0.650757 5.50116 1.95263 4.14543 3.25282C-0.493944 7.70284 -0.691794 13.4261 3.50298 21.8765C5.19034 25.277 6.46063 28.9578 7.39648 33.1622C9.50483 42.6336 11.4788 45.6349 14.5298 44.0061C15.9991 43.2218 17.6437 39.611 18.1732 36.0054C19.0084 30.3236 22.3539 30.3236 23.1891 36.0054C23.7186 39.611 25.3633 43.2218 26.8325 44.0061C29.8835 45.6349 31.8575 42.6336 33.9658 33.1622C34.9017 28.9578 36.172 25.277 37.8593 21.8765C42.0513 13.4318 41.8557 7.70228 37.2253 3.26067C33.8467 0.0200023 31.4005 -0.567577 24.9158 0.304262C21.0859 0.818956 19.0185 0.832412 16.5027 0.358087C12.6311 -0.370782 10.9842 -0.370781 8.44644 0.35977ZM14.4983 5.26506C14.4983 6.04439 13.9548 6.40209 12.3905 6.65327C9.60994 7.099 7.81242 8.42218 6.8434 10.7366C6.02164 12.699 4.58104 13.2378 4.02459 11.7912C3.51816 10.4742 6.38194 6.15876 8.43183 5.15124C9.44975 4.65057 11.2315 4.23511 12.3905 4.22838C14.0801 4.21829 14.4983 4.4235 14.4983 5.26506Z" fill="#2E0E81"/>
</svg>
