<svg width="200" height="200" viewBox="0 0 200 200" fill="none" xmlns="http://www.w3.org/2000/svg">
<mask id="path-1-inside-1" fill="white">
<path fill-rule="evenodd" clip-rule="evenodd" d="M100 200C44.7715 200 0 155.228 0 100C0 44.7715 44.7715 0 100 0H200V100C200 155.228 155.228 200 100 200Z"/>
</mask>
<path d="M200 0V-40H240V0H200ZM40 100C40 133.137 66.8629 160 100 160V240C22.6801 240 -40 177.32 -40 100H40ZM100 40C66.8629 40 40 66.8629 40 100H-40C-40 22.6801 22.6801 -40 100 -40V40ZM200 40H100V-40H200V40ZM160 100V0H240V100H160ZM100 160C133.137 160 160 133.137 160 100H240C240 177.32 177.32 240 100 240V160Z" fill="#16CBAC" mask="url(#path-1-inside-1)"/>
</svg>
