<svg width="200" height="200" viewBox="0 0 200 200" fill="none" xmlns="http://www.w3.org/2000/svg">
<mask id="path-1-inside-1" fill="white">
<path fill-rule="evenodd" clip-rule="evenodd" d="M100 0C44.7715 0 0 44.7715 0 100C0 155.228 44.7715 200 100 200H200V100C200 44.7715 155.228 0 100 0Z"/>
</mask>
<path d="M200 200V240H240V200H200ZM40 100C40 66.8629 66.8629 40 100 40V-40C22.6801 -40 -40 22.6801 -40 100H40ZM100 160C66.8629 160 40 133.137 40 100H-40C-40 177.32 22.6801 240 100 240V160ZM200 160H100V240H200V160ZM160 100V200H240V100H160ZM100 40C133.137 40 160 66.8629 160 100H240C240 22.6801 177.32 -40 100 -40V40Z" fill="#16CBAC" mask="url(#path-1-inside-1)"/>
</svg>
